<svg id="图层_1" data-name="图层 1" xmlns="http://www.w3.org/2000/svg" viewBox="0 0 68 68"><defs><style>.cls-1{fill:#6ac2b5;}</style></defs><title>未标题-2</title><path class="cls-1" d="M48.12,17.15c2.55,0,4.62,2.38,4.62,5.31a9.13,9.13,0,0,1-1.86,5.28v1.86s-2.19,2.49-2.76,2.49-2.76-2.49-2.76-2.49V27.73a9.13,9.13,0,0,1-1.86-5.28C43.49,19.53,45.56,17.15,48.12,17.15Z"/><path class="cls-1" d="M45.35,29.59s2.19,2.49,2.76,2.49,2.76-2.49,2.76-2.49V27.73a9.13,9.13,0,0,0,1.86-5.28c0-2.93-2.07-5.31-4.62-5.31s-4.63,2.38-4.63,5.31a9.13,9.13,0,0,0,1.86,5.28Z"/><path class="cls-1" d="M65.52,12.94h-33a13,13,0,0,1,1.42,2H65.52v24.4H59.25c.81-.29,1.22-.61,1.22-.9,0-.84-.18-4.76-1.9-5.6s-4.14-1.24-6.81-2.49l-1.48,9h-.89a14.79,14.79,0,0,0-.82-4.24l.93-.93a.39.39,0,0,0,0-.54l-1.11-1.11a.37.37,0,0,0-.54,0l-1.11,1.11a.38.38,0,0,0,0,.54l.93.92a14.81,14.81,0,0,0-.82,4.24h-.89l-1.48-9C41.8,31.6,39.38,32,37.66,32.84a3.61,3.61,0,0,0-1.51,2.44l2.52,1c2.64,1.06,4.92,2,6.6,2.8,3.12,1.53,4.42,5.47,5,8.8H60.47V45.56H51.81V41.35H65.52a2,2,0,0,0,2-2V14.94A2,2,0,0,0,65.52,12.94Z"/><path class="cls-1" d="M44,41.81C40.68,40.2,34.38,38,29.28,35.6V32.06A17.39,17.39,0,0,0,32.84,22c0-5.59-3.95-10.12-8.82-10.12S15.21,16.42,15.21,22a17.39,17.39,0,0,0,3.56,10.06V35.6C13.67,38,7.38,40.2,4.1,41.81S.47,50.88.47,52.49s6.35,3.63,19.75,3.63h9.07C41.68,56,47.58,54,47.58,52.49S47.24,43.42,44,41.81Z"/></svg>