<svg id="图层_1" data-name="图层 1" xmlns="http://www.w3.org/2000/svg" viewBox="0 0 68 68"><defs><style>.cls-1{fill:#6ac2b5;}</style></defs><title>未标题-2</title><path class="cls-1" d="M22.94,41.8V37.64a12,12,0,0,1-6.31-1.82l1-2.76a11,11,0,0,0,5.94,1.77c2.93,0,4.91-1.69,4.91-4s-1.61-3.67-4.66-4.91C19.6,24.24,17,22.34,17,18.75c0-3.42,2.43-6,6.23-6.64V7.94h2.56v4a11,11,0,0,1,5.36,1.44l-1,2.72a10,10,0,0,0-5.2-1.4c-3.18,0-4.37,1.9-4.37,3.54,0,2.15,1.52,3.22,5.11,4.71,4.25,1.73,6.39,3.87,6.39,7.55,0,3.26-2.27,6.31-6.51,7V41.8Z"/><path class="cls-1" d="M21,49.71a25.05,25.05,0,1,1,25-39.07L42.3,13.2A20.61,20.61,0,1,0,21.75,45.33Z"/><path class="cls-1" d="M60.66,46.28s-2.61-.25-6.1-.45c-.22,10.69-2,17.54-5.6,19.35V53.84a1.69,1.69,0,0,0,1.48-1.66V50.49a1.7,1.7,0,0,0-1.7-1.71H45a1.71,1.71,0,0,0-1.71,1.71v1.69a1.69,1.69,0,0,0,1.48,1.66V65.18c-3.64-1.81-5.39-8.66-5.61-19.35-3.49.2-6.1.45-6.1.45a7,7,0,0,0-7,7v8.89c0,3.87,10.87,5.61,21,5.61S67.67,66,67.67,62.18V53.29A7,7,0,0,0,60.66,46.28Z"/><path class="cls-1" d="M46.87,46.21c5,0,12.62-6.49,12.62-15.13C59.49,22.74,53.83,16,46.87,16S34.25,22.74,34.25,31.08C34.25,39.71,41.9,46.21,46.87,46.21ZM37.44,27.7c.33-.55.69-1.1,1-1.57,1-1.37,1.82-2.75,3.87,0,1.93,2.59,9.17,4,14.31,4.2,0,.25,0,.5,0,.75,0,6.68-6,12.33-9.82,12.33s-9.82-5.64-9.82-12.33A15.12,15.12,0,0,1,37.44,27.7Z"/></svg>