<svg id="图层_1" data-name="图层 1" xmlns="http://www.w3.org/2000/svg" viewBox="0 0 68 68"><defs><style>.cls-1{fill:#6ac2b5;}</style></defs><title>未标题-2</title><path class="cls-1" d="M12.44,37.16h6.21L9.49,28,.33,37.16H6a28,28,0,0,0,23.56,24.6l1-6.26A21.65,21.65,0,0,1,12.44,37.16Z"/><path class="cls-1" d="M62,30.75A28.08,28.08,0,0,0,39,6.24l-1.12,6.24A21.74,21.74,0,0,1,55.55,30.75h-6.2l9.16,9.16,9.16-9.16Z"/><path class="cls-1" d="M40,42.76c0,.8.94,1.46,1.6,1.56.93,2.75,2.84,5,4.69,5s3.75-2.25,4.69-5h0c.66,0,1.78-.71,1.78-1.59s-.53-1.58-1.19-1.58h0c0-.09,0-.18,0-.26,0-4-2.69-6.08-5.29-6.08S41,36.91,41,40.92c0,.09,0,.19,0,.29A1.51,1.51,0,0,0,40,42.76Z"/><path class="cls-1" d="M47.81,54.91V53.84c0-.66-.51-1.47-.51-1.91s.55-.55.55-1.1-.31-.55-1.2-.55h-.4c-.89,0-1.2,0-1.2.55s.55.66.55,1.1-.51,1.25-.51,1.91v1.06a39.16,39.16,0,0,1-3.16-5.7A25,25,0,0,0,34,52.78v6.83H58.51V52.78a24.88,24.88,0,0,0-7.58-3.48A39,39,0,0,1,47.81,54.91Z"/><circle class="cls-1" cx="27.69" cy="25.86" r="0.77"/><circle class="cls-1" cx="29.93" cy="24.81" r="0.77"/><path class="cls-1" d="M34.47,23.91c-.89-.4-4,4.27-6.88,4.27s-5.73-4.82-6.6-4.45a20.09,20.09,0,0,0-3.67,2v6.43H37.68V25.7A19.41,19.41,0,0,0,34.47,23.91Z"/><circle class="cls-1" cx="25.47" cy="24.81" r="0.77"/><circle class="cls-1" cx="23.23" cy="23.77" r="0.76"/><circle class="cls-1" cx="32.16" cy="23.77" r="0.76"/><path class="cls-1" d="M31.43,20.39c3.49.82,5.15.37,5.15-1.17s-1.21-2.46-2.4-7.11-4.3-4.79-6.1-4.79-4.9.15-6.1,4.79-2.4,5.51-2.4,7.11,1.59,2,4.93,1.22a4.81,4.81,0,0,0,3.45,2A4.82,4.82,0,0,0,31.43,20.39Zm-3.48.7c-1.78,0-3.93-2.65-3.93-5.78a8.88,8.88,0,0,1,.45-2.9c.32-.29.71-.29,1.35.57.82,1.1,3.71,1.76,6,1.94,0,.13,0,.26,0,.39C31.87,18.44,29.73,21.09,28,21.09Z"/></svg>