<svg id="图层_1" data-name="图层 1" xmlns="http://www.w3.org/2000/svg" viewBox="0 0 68 68"><defs><style>.cls-1{fill:#6ac2b5;}</style></defs><title>未标题-2</title><path class="cls-1" d="M59.32,10.32H8.68A8.54,8.54,0,0,0,0,18.68V45.6A8.54,8.54,0,0,0,8.68,54H59.32A8.53,8.53,0,0,0,68,45.6V18.68A8.54,8.54,0,0,0,59.32,10.32ZM64,45.6A4.53,4.53,0,0,1,59.32,50H8.68A4.54,4.54,0,0,1,4,45.6V18.68a4.54,4.54,0,0,1,4.68-4.36H59.32A4.53,4.53,0,0,1,64,18.68Z"/><path class="cls-1" d="M28.09,35.27s-1.43-.14-3.34-.25c-.12,5.85-1.08,9.6-3.07,10.59v-6.2a.92.92,0,0,0,.81-.91v-.93a.93.93,0,0,0-.93-.93h-2a.93.93,0,0,0-.93.93v.93a.92.92,0,0,0,.81.91v6.2c-2-1-2.95-4.74-3.07-10.59-1.91.11-3.34.25-3.34.25a3.84,3.84,0,0,0-3.84,3.84V44c0,2.12,5.95,3.07,11.51,3.07S31.93,46.09,31.93,44V39.11A3.84,3.84,0,0,0,28.09,35.27Z"/><path class="cls-1" d="M20.54,35.23c2.72,0,6.91-3.55,6.91-8.28,0-4.57-3.1-8.28-6.91-8.28S13.64,22.39,13.64,27C13.64,31.68,17.83,35.23,20.54,35.23ZM15.38,25.11c.18-.3.38-.6.57-.86.55-.75,1-1.5,2.12,0s5,2.21,7.83,2.3c0,.14,0,.27,0,.41,0,3.66-3.3,6.74-5.37,6.74S15.17,30.61,15.17,27A8.36,8.36,0,0,1,15.38,25.11Z"/><rect class="cls-1" x="37.83" y="33.54" width="19.13" height="3.45"/><rect class="cls-1" x="48.54" y="27.5" width="8.2" height="3.45"/><rect class="cls-1" x="41.48" y="21.46" width="15.26" height="3.45"/><rect class="cls-1" x="48.54" y="39.45" width="8.42" height="3.45"/><rect class="cls-1" x="40.64" y="39.45" width="4.21" height="3.45"/></svg>