<svg id="图层_1" data-name="图层 1" xmlns="http://www.w3.org/2000/svg" viewBox="0 0 68 68"><defs><style>.cls-1{fill:#6ac2b5;}</style></defs><title>未标题-2</title><path class="cls-1" d="M9.19,11.93A11.41,11.41,0,0,0,10,13.81a6.69,6.69,0,0,0,2.24,2.48,2.76,2.76,0,0,0,1.39.42,3.17,3.17,0,0,0,2-.84,7.66,7.66,0,0,0,1.67-2.09,10.85,10.85,0,0,0,.82-1.83h0c.63,0,1.7-.68,1.7-1.51s-.51-1.51-1.14-1.51h0c0-.08,0-.17,0-.25,0-3.82-2.57-5.8-5.05-5.8s-5,2-5,5.8c0,.09,0,.18,0,.27a1.44,1.44,0,0,0-1,1.49C7.66,11.2,8.56,11.83,9.19,11.93Z"/><path class="cls-1" d="M38.94,16.59H18.17l0,.12a83.77,83.77,0,0,1-4.36,8.11S10.21,18,9.54,16.59A23.87,23.87,0,0,0,2,20V43.06a2,2,0,0,0,2,2H6.65v20H20.86V22H38.94a2.64,2.64,0,0,0,2.64-2.64v-.13A2.64,2.64,0,0,0,38.94,16.59Z"/><path class="cls-1" d="M46.35,65.13A19.69,19.69,0,1,1,66,45.44,19.71,19.71,0,0,1,46.35,65.13Zm0-35.31A15.62,15.62,0,1,0,62,45.44,15.64,15.64,0,0,0,46.35,29.82Z"/><path class="cls-1" d="M49.34,49.46H35.44a2,2,0,1,1,0-3.91h10V33.63a2,2,0,0,1,3.91,0V49.46Z"/></svg>