<svg id="图层_1" data-name="图层 1" xmlns="http://www.w3.org/2000/svg" viewBox="0 0 162.82 45.28"><defs><style>.cls-1,.cls-2{fill:#68baad;}.cls-2{stroke:#68baad;stroke-miterlimit:10;}</style></defs><title>智筹－顾问+完稿 [已恢复]</title><rect id="_路径_" data-name="&lt;路径&gt;" class="cls-1" x="113.92" y="9.35" width="7.61" height="1.94"/><path id="_路径_2" data-name="&lt;路径&gt;" class="cls-1" d="M112.89,9.34c0-.3-.06-1.27.92-1.27h8V6.17H110.9A1.76,1.76,0,0,0,109.08,8v3.6h3.81Z"/><path id="_路径_3" data-name="&lt;路径&gt;" class="cls-1" d="M1.41,16H21.15L8.73,25.73c-6,5-7.31,10.2-7.31,13.32V43.2H36.22V32.83H16.48L28.8,23.21h0C35,18,36.23,12.39,36.23,9.57V5.65H1.41Z"/><rect id="_路径_4" data-name="&lt;路径&gt;" class="cls-1" x="70.61" y="15.68" width="5.08" height="2.43"/><rect id="_路径_5" data-name="&lt;路径&gt;" class="cls-1" x="98.25" y="9.35" width="7.61" height="1.94"/><path id="_路径_6" data-name="&lt;路径&gt;" class="cls-1" d="M65.83,19a5.19,5.19,0,0,1,.62,0,3,3,0,0,0,3-2.24l.63-3.58h5.62V11.25H70.4L70.92,8h4.77V6.08H65a.74.74,0,0,1-.56-.18.46.46,0,0,1-.11-.31v-1H61.41V5.9a2.25,2.25,0,0,0,.71,1.58A2.45,2.45,0,0,0,63.78,8h2.95l-.52,3.23H61.43v1.92h4.45l-.53,2.77a1.56,1.56,0,0,1-.41.79,2,2,0,0,1-1.05.3H61.4v2h4.43Z"/><path id="_路径_7" data-name="&lt;路径&gt;" class="cls-1" d="M97.22,9.2c0-.31,0-1.14.92-1.14h8V6.17H95.23A1.67,1.67,0,0,0,93.41,8V11.6h3.81Z"/><rect id="_路径_8" data-name="&lt;路径&gt;" class="cls-1" x="105.75" y="28.61" width="8.09" height="2.24"/><path id="_路径_9" data-name="&lt;路径&gt;" class="cls-1" d="M119.83,33.75a1.94,1.94,0,0,0,2-2V26.79h0v-2H105.75v2h11.81v4.12c0,.37-.22.52-.86.52h-2.9v2.32h6Z"/><path id="_复合路径_" data-name="&lt;复合路径&gt;" class="cls-1" d="M63.42,33.76H84.69c2.06,0,3.11-1,3.11-3V20.65H63.42ZM68.17,22.6H83v3.31H68.17Zm0,5.27H83V31a.75.75,0,0,1-.81.77l-.25,0H68.17Z"/><path id="_复合路径_2" data-name="&lt;复合路径&gt;" class="cls-1" d="M77.13,18.26h9.52c2.1,0,3.11-.9,3.11-3V6.09H77.13ZM80.83,8h5.24v7.51a.76.76,0,0,1-.87.79H80.83Z"/><path id="_路径_10" data-name="&lt;路径&gt;" class="cls-1" d="M104.87,23h16.94v-2h-16l.84-1.72h15.15v-2h-14.2l.84-1.72h13.36v-2h-12.4l.83-1.7h-4.67l-.83,1.7H93.41v2h10.37l-.84,1.72H93.41v2H102l-.84,1.72H93.41v2h6.77l-3.58,7.32a2.11,2.11,0,0,1-1.67,1.22H93.41v2h4c.78,0,2.44-.48,3.91-3.2Z"/><path id="_路径_11" data-name="&lt;路径&gt;" class="cls-1" d="M53.21,13.76a5.36,5.36,0,1,1,0-6.37V2.53a9.12,9.12,0,1,0,0,16.08Z"/><path class="cls-1" d="M149.64,9.32a1.47,1.47,0,0,1-.29.7,1.08,1.08,0,0,1-.68.15h-.51l-.46,0c-.13,0-.2.1-.2.25s0,.33,0,.48,0,.33,0,.51a.21.21,0,0,0,.16.24,1.76,1.76,0,0,0,.68-.11q.67-.2.74.27a.73.73,0,0,1-.47.84l-.47.2-.55.22a.21.21,0,0,0-.15.22q0,.5,0,.91c0,.27,0,.52,0,.73a9.86,9.86,0,0,1,0,1.92,7.21,7.21,0,0,1-.37,1.61,4.29,4.29,0,0,1-.66,1.2,2,2,0,0,1-.87.67,6,6,0,0,1-3.53.41,4.84,4.84,0,0,1-2.73-1.92c-.23-.3-.3-.5-.21-.61s.25-.11.48,0a7.2,7.2,0,0,0,2,.55,4,4,0,0,0,1.66-.14,2.53,2.53,0,0,0,1.2-.81,3,3,0,0,0,.62-1.46c0-.25.06-.55.09-.92s0-.74,0-1.12-.11-.34-.32-.27-.69.25-1,.36l-1,.33a1.58,1.58,0,0,1-1.11,0,.9.9,0,0,1-.63-.79,1.08,1.08,0,0,1,.29-.93,1.72,1.72,0,0,1,1.05-.48l1.27-.19,1.27-.19a.22.22,0,0,0,.22-.25V10.49a.22.22,0,0,0-.25-.25l-.89.06-.72.09a7.51,7.51,0,0,0-.81.19l-.66.19q-.69.2-1-.6a.86.86,0,0,1,0-.66,1.3,1.3,0,0,1,.61-.63,2.8,2.8,0,0,1,1.12-.45,1.12,1.12,0,0,1,.67.07,1.46,1.46,0,0,0,.69.1,1.86,1.86,0,0,1,.37,0h.47q.3,0,.25-.27t0-.57c0-.2,0-.36,0-.47q-.17-.94.17-1.28t1.24-.14a1.57,1.57,0,0,1,.76.36,1.66,1.66,0,0,1,.42.58,1.71,1.71,0,0,1,.14.67,2.65,2.65,0,0,1-.07.65.87.87,0,0,0-.07.5c0,.08.12.12.25.12a3.08,3.08,0,0,1,.6,0,3.41,3.41,0,0,1,1,.21A.26.26,0,0,1,149.64,9.32Zm11.12,6.85a5.11,5.11,0,0,0-.2,1.13q-.1.91-.17,2a2.73,2.73,0,0,1-.21.83,1.13,1.13,0,0,1-.61.56,1.44,1.44,0,0,1-.68.12,3,3,0,0,1-.81-.2l-.5-.11a3.87,3.87,0,0,0-.72-.06l-1.17,0a10.25,10.25,0,0,1-1.09-.1c-.33,0-.65-.08-.94-.1a5,5,0,0,0-1.12.1l-.32.09a2.67,2.67,0,0,0-.37.16,1.18,1.18,0,0,1-.43,0l-.61,0a.8.8,0,0,1-.58-.43,1.79,1.79,0,0,1-.26-1V17.78c0-.37,0-.7,0-1s0-.51,0-.72-.05-.43-.09-.68a2.44,2.44,0,0,1,0-.77.22.22,0,0,0-.22-.27,2,2,0,0,1-.7-.22,1.69,1.69,0,0,1-.57-.52c-.17-.21-.24-.36-.22-.45s.12-.15.3-.2a10.15,10.15,0,0,0,3.1-1.49A6.54,6.54,0,0,0,153.59,9q.17-.37-.47-.37a5.15,5.15,0,0,0-.86.09,4.39,4.39,0,0,0-.71.16,1.62,1.62,0,0,1-.82.07.62.62,0,0,1-.47-.35,1,1,0,0,1,0-.66,1.64,1.64,0,0,1,.56-.81,1.87,1.87,0,0,1,.55-.31,2.68,2.68,0,0,1,.72-.17,2.78,2.78,0,0,1,.7,0,1,1,0,0,1,.5.2,1.44,1.44,0,0,0,.47.26,3.5,3.5,0,0,0,.47.16,3,3,0,0,1,.47.09l.83.17.92.19.71.15a5.2,5.2,0,0,0,.82.09,1.52,1.52,0,0,0,.65-.09,1.28,1.28,0,0,1,.91-.1,1.3,1.3,0,0,1,.68.5,1.47,1.47,0,0,1,.36.69,2.35,2.35,0,0,1-.11.84,3.62,3.62,0,0,1-.26.65c-.12.25-.26.5-.41.76s-.3.5-.46.73a3.7,3.7,0,0,1-.43.55,8.49,8.49,0,0,1-1.27,1.07,3.42,3.42,0,0,1-1.17.52c-.08,0-.1,0,0,.08a2.22,2.22,0,0,0,.58.1,4.32,4.32,0,0,0,1,0,3.16,3.16,0,0,0,.73-.14,2,2,0,0,1,.79-.17,1.85,1.85,0,0,1,.79.42,1.39,1.39,0,0,1,.63.83A2,2,0,0,1,160.76,16.17Zm-2.86-5.91q.25-.79-.7-1.07a1.12,1.12,0,0,0-.27,0l-.57-.07a.2.2,0,0,0-.25.1,18.38,18.38,0,0,1-2.35,2.72,15.25,15.25,0,0,1-2.35,1.85c-.33.21-.48.36-.46.45s.26.11.71.07l.86,0,.81,0c.26,0,.41-.05.42-.11s-.07-.16-.25-.31a1.83,1.83,0,0,1-.47-.89.26.26,0,0,1,.1-.33.31.31,0,0,1,.32,0,3.38,3.38,0,0,0,1.25.29,3.06,3.06,0,0,0,1.38-.36,2.18,2.18,0,0,0,.47-.35,6,6,0,0,0,.55-.57c.18-.21.35-.43.5-.65A2.09,2.09,0,0,0,157.91,10.27Zm.45,6a.49.49,0,0,0-.17-.41,1.66,1.66,0,0,0-.72-.21,6,6,0,0,0-.75,0h-1.44l-1.66,0q-.84,0-1.44.07c-.15,0-.22.08-.22.25q0,.57,0,1.25c0,.46,0,.91.1,1.35a.22.22,0,0,0,.25.22q2.13.07,3.41.06t1.68-.06a1.25,1.25,0,0,0,.5-.14.62.62,0,0,0,.2-.34,5.33,5.33,0,0,0,.21-1A9.32,9.32,0,0,0,158.35,16.3Z"/><path class="cls-1" d="M148.7,28.18a.67.67,0,0,1-.33.37,1.75,1.75,0,0,1-.88.17c-.1,0-.15.1-.15.3q0,1.64,0,3.18v3.18c0,.18,0,.3.09.35a.41.41,0,0,0,.33,0c.25,0,.36,0,.34.19s-.15.28-.36.36a.64.64,0,0,0-.32.22.87.87,0,0,0-.08.42V39.7a5.23,5.23,0,0,1,0,.82,1,1,0,0,1-.17.46.63.63,0,0,1-.33.22,2.68,2.68,0,0,1-.53.09q-.67,0-.86-.22a2,2,0,0,1-.14-1.12q0-.6.06-1.15c0-.37,0-.74,0-1.1s0-.36-.1-.4a.8.8,0,0,0-.47.07l-2.13.58-2.51.63a1.56,1.56,0,0,1-1.08,0c-.26-.13-.36-.45-.31-.94a1.32,1.32,0,0,1,.35-.89,1.82,1.82,0,0,1,1.09-.32h.5c.23,0,.38,0,.43-.1a.59.59,0,0,0,.09-.37q.07-2,.12-3.69t0-2.92c0-.17,0-.27-.09-.31a.41.41,0,0,0-.29,0,3.44,3.44,0,0,0-.55.13.84.84,0,0,1-.57.15.43.43,0,0,1-.31-.22.67.67,0,0,1,0-.41.68.68,0,0,1,.19-.38,3.45,3.45,0,0,1,1-.78.76.76,0,0,1,.53-.06,1.52,1.52,0,0,0,.38.14,4.43,4.43,0,0,0,.53.06h6a.66.66,0,0,1,.52.2A.47.47,0,0,1,148.7,28.18Zm-3.3,7q0-.5-.15-.63a1.76,1.76,0,0,0-.89-.14q-.47,0-.75,0a.83.83,0,0,0-.41.12.45.45,0,0,0-.17.29,2.76,2.76,0,0,0,0,.51c0,.4.06.65.17.74s.45.12,1,0a4.56,4.56,0,0,0,.66-.07.86.86,0,0,0,.36-.15.45.45,0,0,0,.16-.27A3.81,3.81,0,0,0,145.39,35.15Zm.07-2.53a4.59,4.59,0,0,0,0-.56.49.49,0,0,0-.12-.32.59.59,0,0,0-.32-.15,3.48,3.48,0,0,0-.58,0,5.83,5.83,0,0,0-.77,0,.9.9,0,0,0-.42.12.43.43,0,0,0-.19.3,2.8,2.8,0,0,0,0,.5,1.85,1.85,0,0,0,0,.42.34.34,0,0,0,.16.22,1,1,0,0,0,.38.1q.26,0,.71,0a2.41,2.41,0,0,0,.94-.11Q145.47,33,145.47,32.62Zm.07-3.1a2.13,2.13,0,0,0,0-.46.35.35,0,0,0-.16-.24.86.86,0,0,0-.38-.09q-.26,0-.73,0a1.72,1.72,0,0,0-1,.16,1,1,0,0,0-.16.68,1,1,0,0,0,.15.66,1.67,1.67,0,0,0,.89.14q.52,0,.81,0a1,1,0,0,0,.42-.11.35.35,0,0,0,.16-.26A3.51,3.51,0,0,0,145.54,29.52ZM162,34.18q-.65,1.54-1.43,1.83a1.48,1.48,0,0,1-1.48-.24,2.8,2.8,0,0,0-.66-.35,8.29,8.29,0,0,0-1-.32,12.5,12.5,0,0,0-1.25-.25,9.11,9.11,0,0,0-1.34-.1,2.23,2.23,0,0,0-.84.11,1.48,1.48,0,0,0-.55.61c-.08.13-.08.24,0,.31a.69.69,0,0,0,.42.11h1.28c.31,0,.62,0,.93.06a3.45,3.45,0,0,0,.68,0,.64.64,0,0,0,.31-.1,1.15,1.15,0,0,1,.71-.12,1.64,1.64,0,0,1,.93.35.52.52,0,0,1,.16.25,1.38,1.38,0,0,1,0,.52,8.47,8.47,0,0,1-.14.93q-.11.58-.33,1.5a3,3,0,0,1-1,1.6,3.85,3.85,0,0,1-2.06.73,4.34,4.34,0,0,1-1.46-.1,5,5,0,0,1-1.33-.52,5,5,0,0,1-1.05-.79,3.21,3.21,0,0,1-.67-.94q-.12-.27,0-.35c.08,0,.23,0,.45,0a14.57,14.57,0,0,0,2.22.79,3.52,3.52,0,0,0,1.51.1,1.51,1.51,0,0,0,1-.63,4.21,4.21,0,0,0,.58-1.4q.17-.84-.52-.87h-2.48a2.88,2.88,0,0,0-.58,0,1.33,1.33,0,0,0-.43.17,2.19,2.19,0,0,1-.74.37,1.2,1.2,0,0,1-.62-.07q-.5-.17-.52-.56a1,1,0,0,1,.25-.71,5.25,5.25,0,0,0,.35-.45c.12-.17.24-.33.37-.5s.21-.3.17-.36-.15-.07-.35,0a10.71,10.71,0,0,0-1.65.26,3.3,3.3,0,0,0-.88.33,1.11,1.11,0,0,1-.55.19.75.75,0,0,1-.45-.1.46.46,0,0,1-.21-.32.65.65,0,0,1,.16-.48,4.45,4.45,0,0,1,1.07-1.18q.42-.26.55-.16a.73.73,0,0,0,.31.11,5.24,5.24,0,0,0,.78,0l3.24,0q1.5,0,2.85,0l2.58,0,2.42.07c.23,0,.36.05.4.11S162,34,162,34.18Zm-2.58-5.09q0,.52-.1,1.19t-.1,1.27a2.15,2.15,0,0,1-.22.79,1.47,1.47,0,0,1-.41.5,1.1,1.1,0,0,1-.47.21.53.53,0,0,1-.38-.06,1.45,1.45,0,0,0-.77-.27q-1.22,0-2.54-.06l-2.82,0a1.62,1.62,0,0,0-.36,0,5,5,0,0,0-.56.19q-.92.32-1-.82,0-1-.07-1.83t-.07-1.5a1.59,1.59,0,0,1,0-.6,1,1,0,0,1,.42-.45.74.74,0,0,1,.55-.1,1.58,1.58,0,0,1,.57.2.77.77,0,0,0,.26.12,2,2,0,0,0,.38,0h.58l.56,0a.63.63,0,0,0,.43-.14,1.62,1.62,0,0,0,.11-.68.89.89,0,0,1,.34-.77,1.08,1.08,0,0,1,.73-.15,1,1,0,0,1,.79.4,1.28,1.28,0,0,1,.17.84c0,.21,0,.35,0,.4a.67.67,0,0,0,.37.1l.43,0h.41a1.58,1.58,0,0,0,.82-.15,1,1,0,0,1,.6-.11,1.52,1.52,0,0,1,.77.21A1.25,1.25,0,0,1,159.37,29.09Zm-6,.17a.58.58,0,0,0-.14-.46,1.64,1.64,0,0,0-.81-.11,2.54,2.54,0,0,0-.88.09.37.37,0,0,0-.16.36.68.68,0,0,0,.16.55,1.71,1.71,0,0,0,.91.07,2.1,2.1,0,0,0,.78-.11C153.34,29.6,153.39,29.47,153.39,29.27Zm0,1.94a.77.77,0,0,0-.12-.53,1.28,1.28,0,0,0-.72-.09,3.23,3.23,0,0,0-.88.14q-.19.09-.19.48t.17.51a2.11,2.11,0,0,0,.89.11,1.5,1.5,0,0,0,.71-.1Q153.34,31.63,153.34,31.21Zm3.95.22a1.17,1.17,0,0,0-.12-.68.83.83,0,0,0-.55-.16l-.45,0h-.47a.59.59,0,0,0-.37.07.79.79,0,0,0-.1.42,1.38,1.38,0,0,0,0,.65c0,.08.19.12.42.12h.57l.55,0a.51.51,0,0,0,.37-.12A.41.41,0,0,0,157.29,31.43Zm.1-2.18a.41.41,0,0,0-.42-.45l-.53,0-.53,0a.62.62,0,0,0-.45.07.66.66,0,0,0-.12.4c0,.22,0,.35.06.41a.83.83,0,0,0,.46.11l.52,0,.5,0c.25,0,.4,0,.45-.08A.92.92,0,0,0,157.38,29.24Z"/><line id="_路径_12" data-name="&lt;路径&gt;" class="cls-2" x1="131.42" y1="5.95" x2="131.42" y2="43.71"/><path class="cls-1" d="M66.54,42.81H62.6V42l2.25-2.35H62.76v-1H66.4v.85l-2.32,2.38h2.46Z"/><path class="cls-1" d="M68.25,42.31v2.11H67V38.67h1.27v.63a1.66,1.66,0,0,1,1.43-.74q1.56.08,1.64,2.09,0,2.27-1.82,2.27A1.5,1.5,0,0,1,68.25,42.31Zm0-1.66V41q0,1,.85,1t.9-1.29q0-1.08-.85-1.11T68.25,40.65Z"/><path class="cls-1" d="M73.05,42.84H71.68V41.52h1.37Z"/><path class="cls-1" d="M77.28,42.81H73.34V42l2.25-2.35H73.5v-1h3.65v.85l-2.32,2.38h2.46Z"/><path class="cls-1" d="M81.87,42.81H80.58V40.49q0-.92-.77-.92t-.82,1v2.27H77.72V36.63H79V39.3a1.68,1.68,0,0,1,1.35-.74q1.53,0,1.53,1.72Z"/><path class="cls-1" d="M83.82,38.09H82.5V37h1.32Zm0,4.75H82.5V38.69h1.32Z"/><path class="cls-1" d="M88.86,40l-1.29.21a1,1,0,0,0-.85-.61q-1,.05-1.06,1.22T86.72,42a.84.84,0,0,0,.85-.74l1.37.16a2.05,2.05,0,0,1-2.27,1.53q-2.27-.05-2.32-2.17a2.1,2.1,0,0,1,2.35-2.19A2.21,2.21,0,0,1,88.86,40Z"/><path class="cls-1" d="M93.61,42.81H92.32V40.49q0-.92-.77-.92t-.82,1v2.27H89.47V36.63h1.27V39.3a1.68,1.68,0,0,1,1.35-.74q1.53,0,1.53,1.72Z"/><path class="cls-1" d="M98.6,40.78a2,2,0,0,1-2.27,2.14,2.18,2.18,0,1,1,2.27-2.14Zm-1.32,0q0-1.19-1-1.22t-.92,1.22q0,1.16.92,1.19T97.28,40.78Z"/><path class="cls-1" d="M103.25,42.81H102v-.61a1.44,1.44,0,0,1-1.29.71q-1.56,0-1.58-1.72V38.67h1.27V41.1q0,.87.82.87t.79-1V38.67h1.29Z"/><path class="cls-1" d="M105.09,42.84h-1.37V41.52h1.37Z"/><path class="cls-1" d="M110,40l-1.29.21a1,1,0,0,0-.85-.61q-1,.05-1.06,1.22T107.84,42a.84.84,0,0,0,.85-.74l1.37.16a2.05,2.05,0,0,1-2.27,1.53q-2.27-.05-2.32-2.17a2.1,2.1,0,0,1,2.35-2.19A2.21,2.21,0,0,1,110,40Z"/><path class="cls-1" d="M114.91,40.78a2,2,0,0,1-2.27,2.14,2.18,2.18,0,1,1,2.27-2.14Zm-1.32,0q0-1.19-1-1.22t-.92,1.22q0,1.16.92,1.19T113.59,40.78Z"/><path class="cls-1" d="M122.1,42.81H120.8V40.46q0-.92-.69-.9t-.74,1v2.3h-1.29V40.44q0-.9-.69-.87t-.74,1v2.3h-1.27V38.67h1.27v.66a1.51,1.51,0,0,1,1.4-.77,1.19,1.19,0,0,1,1.22.79,1.62,1.62,0,0,1,1.45-.79q1.37,0,1.37,1.69Z"/></svg>