<svg id="图层_1" data-name="图层 1" xmlns="http://www.w3.org/2000/svg" viewBox="0 0 99.94 35.18"><defs><style>.cls-1{fill:#36a4bb;}</style></defs><title>智筹－顾问+完稿 [已恢复]</title><g id="_编组_" data-name="&lt;编组&gt;"><rect id="_路径_" data-name="&lt;路径&gt;" class="cls-1" x="92.29" y="6.95" width="6.15" height="1.57"/><path id="_路径_2" data-name="&lt;路径&gt;" class="cls-1" d="M91.46,6.93c0-.24,0-1,.74-1h6.46V4.38h-8.8a1.42,1.42,0,0,0-1.47,1.48V8.76h3.07Z"/><path id="_路径_3" data-name="&lt;路径&gt;" class="cls-1" d="M1.47,12.33H17.4l-10,7.83c-4.82,4-5.9,8.24-5.9,10.76v3.35h28.1V25.9H13.63l9.95-7.76h0c5-4.17,6-8.74,6-11V4H1.47Z"/><rect id="_路径_4" data-name="&lt;路径&gt;" class="cls-1" x="57.33" y="12.06" width="4.1" height="1.96"/><rect id="_路径_5" data-name="&lt;路径&gt;" class="cls-1" x="79.64" y="6.95" width="6.15" height="1.57"/><path id="_路径_6" data-name="&lt;路径&gt;" class="cls-1" d="M53.47,14.75l.5,0a2.41,2.41,0,0,0,2.42-1.81L56.89,10h4.54V8.48H57.16l.42-2.61h3.85V4.31H52.8a.6.6,0,0,1-.45-.15.37.37,0,0,1-.09-.25V3.09H49.9V4.16a1.82,1.82,0,0,0,.57,1.27,2,2,0,0,0,1.34.43H54.2l-.42,2.61H49.91V10h3.59l-.43,2.24a1.26,1.26,0,0,1-.33.64,1.65,1.65,0,0,1-.85.24h-2v1.61h3.58Z"/><path id="_路径_7" data-name="&lt;路径&gt;" class="cls-1" d="M78.81,6.83c0-.25,0-.92.74-.92H86V4.38h-8.8a1.35,1.35,0,0,0-1.47,1.49v2.9h3.07Z"/><rect id="_路径_8" data-name="&lt;路径&gt;" class="cls-1" x="85.7" y="22.49" width="6.53" height="1.81"/><path id="_路径_9" data-name="&lt;路径&gt;" class="cls-1" d="M97.06,26.65A1.56,1.56,0,0,0,98.66,25V21h0V19.45h-13V21h9.53v3.33c0,.3-.18.42-.69.42H92.19v1.87h4.88Z"/><path id="_复合路径_" data-name="&lt;复合路径&gt;" class="cls-1" d="M51.53,26.65H68.69c1.66,0,2.51-.78,2.51-2.38v-8.2H51.53Zm3.83-9h12v2.67h-12Zm0,4.26h12v2.56a.6.6,0,0,1-.65.62l-.2,0H55.36Z"/><path id="_复合路径_2" data-name="&lt;复合路径&gt;" class="cls-1" d="M62.59,14.14h7.69c1.69,0,2.51-.73,2.51-2.38V4.31H62.59Zm3-8.24h4.23V12a.61.61,0,0,1-.7.64H65.58Z"/><path id="_路径_10" data-name="&lt;路径&gt;" class="cls-1" d="M85,18H98.66V16.4H85.75L86.43,15H98.66V13.44H87.2L87.88,12H98.66V10.47h-10l.67-1.37H85.55l-.67,1.37H75.74V12h8.37l-.68,1.39H75.74V15h6.92L82,16.4H75.74V18H81.2l-2.89,5.91a1.71,1.71,0,0,1-1.34,1H75.74v1.6H79c.63,0,2-.39,3.15-2.59Z"/><g id="_编组_2" data-name="&lt;编组&gt;"><path id="_复合路径_3" data-name="&lt;复合路径&gt;" class="cls-1" d="M53.86,30.19v.56l-2.22,2.69H54v.71h-3.5v-.59l2.19-2.66H50.57v-.71Z"/><path id="_复合路径_4" data-name="&lt;复合路径&gt;" class="cls-1" d="M55.8,28.57v2.15a1.38,1.38,0,0,1,.54-.49,1.42,1.42,0,0,1,.67-.15,1.33,1.33,0,0,1,1.08.42,1.84,1.84,0,0,1,.34,1.2v2.45h-.87v-2.3a1.3,1.3,0,0,0-.2-.77.81.81,0,0,0-.67-.28.75.75,0,0,0-.64.32,1.32,1.32,0,0,0-.24.82v2.22h-.87V28.57Z"/><path id="_复合路径_5" data-name="&lt;复合路径&gt;" class="cls-1" d="M60.66,28.73a.57.57,0,0,1,.17.41.56.56,0,0,1-.18.42.63.63,0,0,1-.84,0,.57.57,0,0,1-.17-.42.54.54,0,0,1,.17-.41.59.59,0,0,1,.42-.16A.61.61,0,0,1,60.66,28.73Zm0,1.46v4H59.8v-4Z"/><path id="_复合路径_6" data-name="&lt;复合路径&gt;" class="cls-1" d="M65,30.42a1.66,1.66,0,0,1,.59,1.11h-.87a.94.94,0,0,0-.31-.56,1,1,0,0,0-.64-.18.89.89,0,0,0-.76.36,1.61,1.61,0,0,0-.28,1,1.69,1.69,0,0,0,.27,1,1,1,0,0,0,1.73-.51h.87a1.91,1.91,0,0,1-.61,1.2,1.89,1.89,0,0,1-1.23.38,1.77,1.77,0,0,1-1.43-.6,2.21,2.21,0,0,1-.49-1.5,2.17,2.17,0,0,1,.48-1.46,1.78,1.78,0,0,1,1.45-.62A2,2,0,0,1,65,30.42Z"/><path id="_复合路径_7" data-name="&lt;复合路径&gt;" class="cls-1" d="M67.51,28.57v2.15a1.38,1.38,0,0,1,.54-.49,1.42,1.42,0,0,1,.67-.15,1.33,1.33,0,0,1,1.08.42,1.84,1.84,0,0,1,.34,1.2v2.45h-.87v-2.3a1.3,1.3,0,0,0-.2-.77.81.81,0,0,0-.67-.28.75.75,0,0,0-.64.32,1.32,1.32,0,0,0-.24.82v2.22h-.87V28.57Z"/><path id="_复合路径_8" data-name="&lt;复合路径&gt;" class="cls-1" d="M74.64,30.67a2.34,2.34,0,0,1,0,3,2.07,2.07,0,0,1-2.91,0,2.34,2.34,0,0,1,0-3,1.85,1.85,0,0,1,1.45-.59A1.87,1.87,0,0,1,74.64,30.67Zm-2.29.55a1.66,1.66,0,0,0-.25,1,1.63,1.63,0,0,0,.25.94,1,1,0,0,0,1.69,0,1.85,1.85,0,0,0,0-1.89,1,1,0,0,0-1.69,0Z"/><path id="_复合路径_9" data-name="&lt;复合路径&gt;" class="cls-1" d="M77.11,30.19V32.6a1,1,0,0,0,.2.71.86.86,0,0,0,.66.22.82.82,0,0,0,.55-.25,1.43,1.43,0,0,0,.38-.67V30.19h.87v4h-.87v-.51a1.55,1.55,0,0,1-1.24.62c-1,0-1.43-.54-1.43-1.6V30.19Z"/><path id="_复合路径_10" data-name="&lt;复合路径&gt;" class="cls-1" d="M82,33.15A.59.59,0,0,1,82,34a.59.59,0,0,1-.42.16.6.6,0,0,1-.42-.17.59.59,0,0,1,0-.83.59.59,0,0,1,.42-.16A.61.61,0,0,1,82,33.15Z"/><path id="_复合路径_11" data-name="&lt;复合路径&gt;" class="cls-1" d="M86.4,30.42A1.66,1.66,0,0,1,87,31.54h-.87a.93.93,0,0,0-.31-.56,1,1,0,0,0-.64-.18.89.89,0,0,0-.76.36,1.61,1.61,0,0,0-.28,1,1.69,1.69,0,0,0,.27,1,1,1,0,0,0,1.73-.51H87a1.91,1.91,0,0,1-.61,1.2,1.89,1.89,0,0,1-1.23.38,1.77,1.77,0,0,1-1.43-.6,2.21,2.21,0,0,1-.49-1.5,2.17,2.17,0,0,1,.48-1.46,1.78,1.78,0,0,1,1.45-.62A2,2,0,0,1,86.4,30.42Z"/><path id="_复合路径_12" data-name="&lt;复合路径&gt;" class="cls-1" d="M91.27,30.67a2.34,2.34,0,0,1,0,3,2.07,2.07,0,0,1-2.91,0,2.34,2.34,0,0,1,0-3,1.85,1.85,0,0,1,1.45-.59A1.87,1.87,0,0,1,91.27,30.67ZM89,31.22a1.66,1.66,0,0,0-.25,1,1.63,1.63,0,0,0,.25.94,1,1,0,0,0,1.69,0,1.85,1.85,0,0,0,0-1.89,1,1,0,0,0-1.69,0Z"/><path id="_复合路径_13" data-name="&lt;复合路径&gt;" class="cls-1" d="M96.07,30.72a1.57,1.57,0,0,1,.57-.51,1.43,1.43,0,0,1,.67-.14,1.37,1.37,0,0,1,1,.41,1.49,1.49,0,0,1,.4,1.07v2.6h-.87V31.7a1,1,0,0,0-.2-.68.86.86,0,0,0-.66-.21.67.67,0,0,0-.54.25.93.93,0,0,0-.22.67v2.42h-.87V31.71c0-.61-.26-.9-.78-.9a.72.72,0,0,0-.61.29,1,1,0,0,0-.23.67v2.38h-.87v-4h.87v.41a1.47,1.47,0,0,1,1.07-.51A1.33,1.33,0,0,1,96.07,30.72Z"/></g><path id="_路径_11" data-name="&lt;路径&gt;" class="cls-1" d="M43.29,10.5a4.33,4.33,0,1,1,0-5.14V1.44a7.36,7.36,0,1,0,0,13Z"/></g></svg>