<svg id="图层_1" data-name="图层 1" xmlns="http://www.w3.org/2000/svg" viewBox="0 0 183.25 65.21"><defs><style>.cls-1{fill:#fff;}</style></defs><title>智筹－顾问+完稿</title><g id="_编组_" data-name="&lt;编组&gt;"><rect id="_路径_" data-name="&lt;路径&gt;" class="cls-1" x="169.62" y="13.24" width="11.36" height="2.9"/><path id="_路径_2" data-name="&lt;路径&gt;" class="cls-1" d="M168.08,13.22c0-.44-.09-1.89,1.37-1.89h11.94V8.49H165.12a2.62,2.62,0,0,0-2.72,2.73V16.6h5.68Z"/><path id="_路径_3" data-name="&lt;路径&gt;" class="cls-1" d="M1.72,23.2H31.18L12.63,37.68C3.72,45.12,1.72,52.9,1.72,57.56v6.19H53.67V48.28H24.2L42.59,33.93h0c9.32-7.7,11.09-16.15,11.09-20.35V7.72h-52Z"/><rect id="_路径_4" data-name="&lt;路径&gt;" class="cls-1" x="104.99" y="22.68" width="7.59" height="3.63"/><rect id="_路径_5" data-name="&lt;路径&gt;" class="cls-1" x="146.24" y="13.24" width="11.36" height="2.9"/><path id="_路径_6" data-name="&lt;路径&gt;" class="cls-1" d="M97.85,27.66a7.75,7.75,0,0,1,.93,0,4.45,4.45,0,0,0,4.47-3.34l.94-5.34h8.39V16.07h-7.9l.78-4.82h7.12V8.37h-16a1.11,1.11,0,0,1-.84-.28.68.68,0,0,1-.16-.47V6.11H91.26v2a3.36,3.36,0,0,0,1.06,2.35,3.65,3.65,0,0,0,2.48.8h4.4l-.78,4.82H91.28v2.86h6.64l-.79,4.14a2.33,2.33,0,0,1-.62,1.18,3,3,0,0,1-1.57.44h-3.7v3h6.61Z"/><path id="_路径_7" data-name="&lt;路径&gt;" class="cls-1" d="M144.7,13c0-.46,0-1.69,1.37-1.69H158V8.49H141.74A2.5,2.5,0,0,0,139,11.24V16.6h5.68Z"/><rect id="_路径_8" data-name="&lt;路径&gt;" class="cls-1" x="157.43" y="41.98" width="12.08" height="3.35"/><path id="_路径_9" data-name="&lt;路径&gt;" class="cls-1" d="M178.45,49.66a2.89,2.89,0,0,0,2.95-3V39.27h0V36.35h-24v2.92H175v6.15c0,.55-.33.78-1.28.78h-4.33v3.46h9Z"/><path id="_复合路径_" data-name="&lt;复合路径&gt;" class="cls-1" d="M94.26,49.66H126c3.08,0,4.65-1.44,4.65-4.41V30.1H94.26ZM101.35,33h22.2V38h-22.2Zm0,7.87h22.2v4.73a1.12,1.12,0,0,1-1.21,1.15,2,2,0,0,0-.38,0H101.35Z"/><path id="_复合路径_2" data-name="&lt;复合路径&gt;" class="cls-1" d="M114.72,26.53h14.21c3.13,0,4.64-1.35,4.64-4.41V8.37H114.72Zm5.52-15.24h7.82v11.2a1.14,1.14,0,0,1-1.3,1.18h-6.52Z"/><path id="_路径_10" data-name="&lt;路径&gt;" class="cls-1" d="M156.11,33.65H181.4V30.72H157.53l1.25-2.57H181.4V25.24H160.21l1.25-2.56H181.4V19.75H162.89l1.24-2.54h-7l-1.24,2.54H139v2.93h15.47l-1.25,2.56H139v2.92h12.79l-1.25,2.57H139v2.92h10.11l-5.34,10.92a3.15,3.15,0,0,1-2.49,1.82H139v2.95H145c1.16,0,3.64-.72,5.83-4.78Z"/><g id="_编组_2" data-name="&lt;编组&gt;"><path id="_复合路径_3" data-name="&lt;复合路径&gt;" class="cls-1" d="M98.58,56.2v1l-4.11,5h4.34v1.32H92.35V62.44l4.05-4.92H92.49V56.2Z"/><path id="_复合路径_4" data-name="&lt;复合路径&gt;" class="cls-1" d="M102.17,53.21v4a2.55,2.55,0,0,1,1-.91,2.63,2.63,0,0,1,1.23-.27,2.45,2.45,0,0,1,2,.78A3.4,3.4,0,0,1,107,59v4.54h-1.62V59.28a2.39,2.39,0,0,0-.37-1.43,1.49,1.49,0,0,0-1.25-.52,1.38,1.38,0,0,0-1.19.6,2.43,2.43,0,0,0-.44,1.52v4.1h-1.62V53.21Z"/><path id="_复合路径_5" data-name="&lt;复合路径&gt;" class="cls-1" d="M111.15,53.51a1,1,0,0,1,.31.77,1,1,0,0,1-.33.78,1.17,1.17,0,0,1-1.56,0,1,1,0,0,1-.31-.78,1,1,0,0,1,.31-.77,1.09,1.09,0,0,1,.78-.3A1.13,1.13,0,0,1,111.15,53.51Zm0,2.69v7.33h-1.62V56.2Z"/><path id="_复合路径_6" data-name="&lt;复合路径&gt;" class="cls-1" d="M119.26,56.64a3.07,3.07,0,0,1,1.09,2.06h-1.6a1.73,1.73,0,0,0-.58-1,1.9,1.9,0,0,0-1.18-.34,1.64,1.64,0,0,0-1.4.67,3,3,0,0,0-.51,1.86,3.12,3.12,0,0,0,.5,1.9,1.81,1.81,0,0,0,3.2-.94h1.6A3.53,3.53,0,0,1,119.25,63a3.49,3.49,0,0,1-2.28.71,3.26,3.26,0,0,1-2.64-1.11,4.08,4.08,0,0,1-.91-2.76,4,4,0,0,1,.89-2.71A3.29,3.29,0,0,1,117,56,3.68,3.68,0,0,1,119.26,56.64Z"/><path id="_复合路径_7" data-name="&lt;复合路径&gt;" class="cls-1" d="M123.81,53.21v4a2.55,2.55,0,0,1,1-.91A2.63,2.63,0,0,1,126,56a2.45,2.45,0,0,1,2,.78,3.4,3.4,0,0,1,.62,2.21v4.54h-1.62V59.28a2.39,2.39,0,0,0-.37-1.43,1.49,1.49,0,0,0-1.25-.52,1.38,1.38,0,0,0-1.19.6,2.43,2.43,0,0,0-.44,1.52v4.1h-1.62V53.21Z"/><path id="_复合路径_8" data-name="&lt;复合路径&gt;" class="cls-1" d="M137,57.1a4.32,4.32,0,0,1,0,5.53,3.83,3.83,0,0,1-5.39,0,4.32,4.32,0,0,1,0-5.53A3.42,3.42,0,0,1,134.31,56,3.46,3.46,0,0,1,137,57.1Zm-4.24,1a3.06,3.06,0,0,0-.47,1.76,3,3,0,0,0,.47,1.74,1.93,1.93,0,0,0,3.12,0,3.42,3.42,0,0,0,0-3.5,1.93,1.93,0,0,0-3.12,0Z"/><path id="_复合路径_9" data-name="&lt;复合路径&gt;" class="cls-1" d="M141.57,56.2v4.46a1.88,1.88,0,0,0,.37,1.3,1.6,1.6,0,0,0,1.22.41,1.51,1.51,0,0,0,1-.45,2.64,2.64,0,0,0,.71-1.25V56.2h1.62v7.33h-1.62v-.95a2.86,2.86,0,0,1-2.3,1.15c-1.76,0-2.64-1-2.64-3V56.2Z"/><path id="_复合路径_10" data-name="&lt;复合路径&gt;" class="cls-1" d="M150.62,61.69a1.1,1.1,0,0,1,0,1.54,1.09,1.09,0,0,1-.78.3,1.1,1.1,0,0,1-.78-.31,1.1,1.1,0,0,1,0-1.53,1.09,1.09,0,0,1,.78-.3A1.13,1.13,0,0,1,150.62,61.69Z"/><path id="_复合路径_11" data-name="&lt;复合路径&gt;" class="cls-1" d="M158.73,56.64a3.07,3.07,0,0,1,1.09,2.06h-1.6a1.73,1.73,0,0,0-.58-1,1.9,1.9,0,0,0-1.18-.34,1.64,1.64,0,0,0-1.4.67,3,3,0,0,0-.51,1.86,3.12,3.12,0,0,0,.5,1.9,1.81,1.81,0,0,0,3.2-.94h1.6A3.53,3.53,0,0,1,158.71,63a3.49,3.49,0,0,1-2.28.71,3.26,3.26,0,0,1-2.64-1.11,4.08,4.08,0,0,1-.91-2.76,4,4,0,0,1,.89-2.71A3.29,3.29,0,0,1,156.46,56,3.68,3.68,0,0,1,158.73,56.64Z"/><path id="_复合路径_12" data-name="&lt;复合路径&gt;" class="cls-1" d="M167.74,57.1a4.32,4.32,0,0,1,0,5.53,3.83,3.83,0,0,1-5.39,0,4.32,4.32,0,0,1,0-5.53A3.42,3.42,0,0,1,165.06,56,3.46,3.46,0,0,1,167.74,57.1Zm-4.24,1a3.06,3.06,0,0,0-.47,1.76,3,3,0,0,0,.47,1.74,1.93,1.93,0,0,0,3.12,0,3.42,3.42,0,0,0,0-3.5,1.93,1.93,0,0,0-3.12,0Z"/><path id="_复合路径_13" data-name="&lt;复合路径&gt;" class="cls-1" d="M176.61,57.19a2.91,2.91,0,0,1,1.06-.94,2.65,2.65,0,0,1,1.23-.25,2.54,2.54,0,0,1,1.89.75,2.75,2.75,0,0,1,.74,2v4.8h-1.62V59a1.81,1.81,0,0,0-.37-1.26,1.6,1.6,0,0,0-1.22-.4,1.24,1.24,0,0,0-1,.45,1.73,1.73,0,0,0-.41,1.25v4.48h-1.62V59c0-1.12-.48-1.67-1.45-1.67a1.33,1.33,0,0,0-1.12.54,1.9,1.9,0,0,0-.42,1.25v4.39H170.7V56.2h1.62V57a2.72,2.72,0,0,1,2-.95A2.47,2.47,0,0,1,176.61,57.19Z"/></g><path id="_路径_11" data-name="&lt;路径&gt;" class="cls-1" d="M79,19.81a8,8,0,1,1,0-9.5V3.07a13.61,13.61,0,1,0,0,24Z"/></g></svg>