<svg id="图层_1" data-name="图层 1" xmlns="http://www.w3.org/2000/svg" viewBox="0 0 113.95 42"><defs><style>.cls-1{fill:#fff;}</style></defs><title>智筹－顾问+完稿</title><g id="_编组_" data-name="&lt;编组&gt;"><polygon id="_路径_" data-name="&lt;路径&gt;" class="cls-1" points="111.17 7.91 111.52 5.76 110.09 5.76 109.74 7.91 107.37 7.91 107.16 9.2 109.53 9.2 109.18 11.35 110.61 11.35 110.96 9.2 113.33 9.2 113.54 7.91 111.17 7.91"/><path id="_复合路径_" data-name="&lt;复合路径&gt;" class="cls-1" d="M107.54,11h-5.72L101,16.09h5.72Zm-2,3.93h-3l.44-2.73h3Z"/><path id="_路径_2" data-name="&lt;路径&gt;" class="cls-1" d="M88.93,16.09s-1.57.75-2.55,1.14l1-6h1.26l-.41,2.54c-.05.33-.18.45-.51.45h-.41l-.17,1.06h.64c1,0,1.39-.46,1.55-1.49l.6-3.69H86.38L85.15,17.7,84.94,19s3.77-1.63,3.77-1.63Z"/><path id="_路径_3" data-name="&lt;路径&gt;" class="cls-1" d="M93.06,15.87a8.1,8.1,0,0,0,.52-2l.32-2H92.63l-.31,1.92c-.4,2.49-1.47,3.47-4,5.22H89.8a10.5,10.5,0,0,0,2.6-1.94c.12.13,1.13,1.12,1.79,1.94h1.29A14.32,14.32,0,0,0,93.06,15.87Z"/><polygon id="_路径_4" data-name="&lt;路径&gt;" class="cls-1" points="106.65 7.94 103.03 7.94 102.83 9.18 106.45 9.18 106.65 7.94"/><path id="_路径_5" data-name="&lt;路径&gt;" class="cls-1" d="M85.73,9h4.34l.19-1.14H84.7l-.84,5.22a23.37,23.37,0,0,1-.7,3.33A11.84,11.84,0,0,1,81.93,19H83a6.35,6.35,0,0,0,1.29-2.28,27,27,0,0,0,.75-3.58Z"/><path id="_路径_6" data-name="&lt;路径&gt;" class="cls-1" d="M109,12.16l-.76,4.67c-.11.71-.49.94-1.25.94h-1.71L105.08,19h2.31a2,2,0,0,0,2.28-1.84l.8-5Z"/><polygon id="_路径_7" data-name="&lt;路径&gt;" class="cls-1" points="96.77 9.03 96.96 7.89 90.86 7.89 90.68 9.03 92.87 9.03 92.43 10.07 90.67 10.07 89.67 16.29 90.82 16.29 91.64 11.22 95.1 11.22 94.28 16.29 95.44 16.29 96.44 10.07 93.69 10.07 94.25 9.03 96.77 9.03"/><polygon id="_路径_8" data-name="&lt;路径&gt;" class="cls-1" points="97.36 19.17 98.85 19.17 100.3 10.17 98.82 10.17 97.36 19.17"/><polygon id="_路径_9" data-name="&lt;路径&gt;" class="cls-1" points="44.99 29.75 43.37 12.12 37.74 12.12 31.72 29.94 31.48 12.12 26.87 12.12 27.19 35.56 34.15 35.56 39.73 18.76 41.62 35.56 48.35 35.56 54.61 12.12 49.27 12.12 44.99 29.75"/><path id="_路径_10" data-name="&lt;路径&gt;" class="cls-1" d="M91.1,21.5l-1.3,7.69q-.69,3.06-3.17,3.23-2.71,0-2.22-2.88l1.36-8H81.58l-1.42,8.39q-.86,5.59,4.28,5.68a5.77,5.77,0,0,0,4.68-2.36l-.34,2h4.28L95.38,21.5Z"/><path id="_路径_11" data-name="&lt;路径&gt;" class="cls-1" d="M105.07,27.24a5.15,5.15,0,0,0-.76-.17q-1.6-.35-2.27-.52-1.85-.44-1.61-1.31.31-1.31,2.06-1.31,1.92,0,1.95,1.4h4.44a4,4,0,0,0-.11-1q-.87-3.35-6.07-3.19-6,.09-6.75,4.28Q95.58,28,98.57,29a28.81,28.81,0,0,0,2.94.7q2.87.61,2.53,1.57-.24,1.4-2.6,1.4t-2.57-1.83H94.5c0,.31,0,.71,0,.8.07,2.82,2,3.92,6.8,3.92,3.26,0,6.38-1.37,6.9-4.11Q108.94,28.11,105.07,27.24Z"/><path id="_复合路径_2" data-name="&lt;复合路径&gt;" class="cls-1" d="M66.92,12.12H57.16l-4,23.44h5.3l1.4-8.27h3.92c6.58,0,9.84-2.58,10.64-7.74C75.07,14.74,72.18,12.12,66.92,12.12Zm2,7.64q-.68,3.4-4.84,3.5h-3.5l1.18-7h3.5Q69.38,16.36,68.91,19.76Z"/><polygon id="_路径_12" data-name="&lt;路径&gt;" class="cls-1" points="76.41 12.12 72.47 35.56 77.67 35.56 81.6 12.12 76.41 12.12"/><polygon id="_路径_13" data-name="&lt;路径&gt;" class="cls-1" points="21.86 27.07 12.87 27.07 13.78 23.54 22.35 23.54 21.86 27.07"/><path id="_路径_14" data-name="&lt;路径&gt;" class="cls-1" d="M12.49,31.13a6.84,6.84,0,0,1-6.91-7.58A8.46,8.46,0,0,1,13.83,16a6.76,6.76,0,0,1,6.77,5.38h5.25a11.34,11.34,0,0,0-11.57-10.5A14.17,14.17,0,0,0,.46,23.54,11.45,11.45,0,0,0,12,36.24a14.17,14.17,0,0,0,13.82-12.7H20.74A8.46,8.46,0,0,1,12.49,31.13Z"/><polygon id="_路径_15" data-name="&lt;路径&gt;" class="cls-1" points="100.23 7.17 99.84 9.18 101.53 9.18 101.91 7.17 100.23 7.17"/></g></svg>