<svg id="图层_1" data-name="图层 1" xmlns="http://www.w3.org/2000/svg" viewBox="0 0 113.95 32.33"><defs><style>.cls-1{fill:#36a4bb;}.cls-2{fill:#231815;}</style></defs><title>智筹－顾问+完稿</title><g id="_编组_" data-name="&lt;编组&gt;"><polygon id="_路径_" data-name="&lt;路径&gt;" class="cls-1" points="111.17 3.15 111.52 1 110.09 1 109.74 3.15 107.37 3.15 107.16 4.44 109.53 4.44 109.18 6.59 110.61 6.59 110.96 4.44 113.33 4.44 113.54 3.15 111.17 3.15"/><path id="_复合路径_" data-name="&lt;复合路径&gt;" class="cls-2" d="M107.54,6.22h-5.72L101,11.34h5.72Zm-2,3.93h-3L103,7.41h3Z"/><path id="_路径_2" data-name="&lt;路径&gt;" class="cls-2" d="M88.93,11.34s-1.57.75-2.55,1.14l1-6h1.26L88.21,9c-.05.33-.18.45-.51.45h-.41l-.17,1.06h.64c1,0,1.39-.46,1.55-1.49l.6-3.69H86.38l-1.23,7.62-.21,1.33s3.77-1.63,3.77-1.63Z"/><path id="_路径_3" data-name="&lt;路径&gt;" class="cls-2" d="M93.06,11.11a8.1,8.1,0,0,0,.52-2l.32-2H92.63L92.32,9c-.4,2.49-1.47,3.47-4,5.22H89.8a10.5,10.5,0,0,0,2.6-1.94c.12.13,1.13,1.12,1.79,1.94h1.29A14.32,14.32,0,0,0,93.06,11.11Z"/><polygon id="_路径_4" data-name="&lt;路径&gt;" class="cls-2" points="106.65 3.18 103.03 3.18 102.83 4.42 106.45 4.42 106.65 3.18"/><path id="_路径_5" data-name="&lt;路径&gt;" class="cls-2" d="M85.73,4.28h4.34l.19-1.14H84.7l-.84,5.22a23.37,23.37,0,0,1-.7,3.33,11.84,11.84,0,0,1-1.23,2.59H83A6.35,6.35,0,0,0,84.31,12a27,27,0,0,0,.75-3.58Z"/><path id="_路径_6" data-name="&lt;路径&gt;" class="cls-2" d="M109,7.41l-.76,4.67c-.11.71-.49.94-1.25.94h-1.71l-.19,1.19h2.31a2,2,0,0,0,2.28-1.84l.8-5Z"/><polygon id="_路径_7" data-name="&lt;路径&gt;" class="cls-2" points="96.77 4.28 96.96 3.13 90.86 3.13 90.68 4.28 92.87 4.28 92.43 5.32 90.67 5.32 89.67 11.54 90.82 11.54 91.64 6.46 95.1 6.46 94.28 11.54 95.44 11.54 96.44 5.32 93.69 5.32 94.25 4.28 96.77 4.28"/><polygon id="_路径_8" data-name="&lt;路径&gt;" class="cls-2" points="97.36 14.42 98.85 14.42 100.3 5.42 98.82 5.42 97.36 14.42"/><polygon id="_路径_9" data-name="&lt;路径&gt;" class="cls-1" points="44.99 24.99 43.37 7.37 37.74 7.37 31.72 25.19 31.48 7.37 26.87 7.37 27.19 30.81 34.15 30.81 39.73 14 41.62 30.81 48.35 30.81 54.61 7.37 49.27 7.37 44.99 24.99"/><path id="_路径_10" data-name="&lt;路径&gt;" class="cls-2" d="M91.1,16.74l-1.3,7.69q-.69,3.06-3.17,3.23-2.71,0-2.22-2.88l1.36-8H81.58l-1.42,8.39q-.86,5.59,4.28,5.68a5.77,5.77,0,0,0,4.68-2.36l-.34,2h4.28l2.32-13.72Z"/><path id="_路径_11" data-name="&lt;路径&gt;" class="cls-2" d="M105.07,22.48a5.15,5.15,0,0,0-.76-.17q-1.6-.35-2.27-.52-1.85-.44-1.61-1.31.31-1.31,2.06-1.31,1.92,0,1.95,1.4h4.44a4,4,0,0,0-.11-1q-.87-3.35-6.07-3.19-6,.09-6.75,4.28-.36,2.62,2.63,3.58a28.81,28.81,0,0,0,2.94.7q2.87.61,2.53,1.57-.24,1.4-2.6,1.4t-2.57-1.83H94.5c0,.31,0,.71,0,.8.07,2.82,2,3.92,6.8,3.92,3.26,0,6.38-1.37,6.9-4.11Q108.94,23.36,105.07,22.48Z"/><path id="_复合路径_2" data-name="&lt;复合路径&gt;" class="cls-2" d="M66.92,7.37H57.16l-4,23.44h5.3l1.4-8.27h3.92c6.58,0,9.84-2.58,10.64-7.74C75.07,10,72.18,7.37,66.92,7.37Zm2,7.64q-.68,3.4-4.84,3.5h-3.5l1.18-7h3.5Q69.38,11.61,68.91,15Z"/><polygon id="_路径_12" data-name="&lt;路径&gt;" class="cls-2" points="76.41 7.37 72.47 30.81 77.67 30.81 81.6 7.37 76.41 7.37"/><polygon id="_路径_13" data-name="&lt;路径&gt;" class="cls-1" points="21.86 22.32 12.87 22.32 13.78 18.79 22.35 18.79 21.86 22.32"/><path id="_路径_14" data-name="&lt;路径&gt;" class="cls-1" d="M12.49,26.37a6.84,6.84,0,0,1-6.91-7.58,8.46,8.46,0,0,1,8.25-7.58,6.76,6.76,0,0,1,6.77,5.38h5.25A11.34,11.34,0,0,0,14.28,6.09,14.17,14.17,0,0,0,.46,18.79,11.45,11.45,0,0,0,12,31.49a14.17,14.17,0,0,0,13.82-12.7H20.74A8.46,8.46,0,0,1,12.49,26.37Z"/><polygon id="_路径_15" data-name="&lt;路径&gt;" class="cls-2" points="100.23 2.41 99.84 4.43 101.53 4.43 101.91 2.41 100.23 2.41"/></g></svg>