<svg id="图层_1" data-name="图层 1" xmlns="http://www.w3.org/2000/svg" viewBox="0 0 80 80"><defs><style>.cls-1{fill:#666;fill-rule:evenodd;}</style></defs><title>icon</title><path class="cls-1" d="M39.9,22a23.12,23.12,0,0,1,23,25.62,43,43,0,0,1-8.44,2.89,57,57,0,0,1-8.29,1.27,4.16,4.16,0,0,0-3.65-2.19H37.85a4.16,4.16,0,0,0-4.15,4.15h0a4.16,4.16,0,0,0,4.15,4.15H42.5a4.16,4.16,0,0,0,3.81-2.5,60.22,60.22,0,0,0,9-1.36A47.56,47.56,0,0,0,62,52,23.12,23.12,0,1,1,39.9,22Z"/><path class="cls-1" d="M40.09,11.73A33.52,33.52,0,0,0,8,35.65H6.8a4.93,4.93,0,0,0-4.92,4.92V48.3A4.93,4.93,0,0,0,6.8,53.21h6.45V36.29a28.29,28.29,0,0,1,53.49-.53V53.21H73.2a4.93,4.93,0,0,0,4.92-4.92V40.57a4.93,4.93,0,0,0-4.92-4.92h-1a33.52,33.52,0,0,0-32.1-23.92Z"/></svg>