<svg id="图层_1" data-name="图层 1" xmlns="http://www.w3.org/2000/svg" viewBox="0 0 80 80"><defs><style>.cls-1{fill:#666;}</style></defs><title>icon</title><path class="cls-1" d="M48.36,53.7v-5.6H9.4V9.73H66.8V45.39l1,.06a12.65,12.65,0,0,1,3.3.63l1.35.46V8.71a4.59,4.59,0,0,0-4.59-4.58H8.38A4.59,4.59,0,0,0,3.79,8.71v40.4A4.59,4.59,0,0,0,8.38,53.7h40Z"/><rect class="cls-1" x="16.42" y="27.54" width="5.35" height="16.77"/><rect class="cls-1" x="37.83" y="24.83" width="5.35" height="19.49"/><rect class="cls-1" x="27.48" y="19.41" width="5.35" height="24.91"/><rect class="cls-1" x="54.24" y="19.93" width="13.65" height="5.89"/><path class="cls-1" d="M71.17,52.88a8,8,0,0,0-4.27-1.12,35.1,35.1,0,0,0-5.22.72V38a3.48,3.48,0,0,0-7,0v20c0,2.33-1.05,3.39-2.86,3.39A7.57,7.57,0,0,1,49.52,61a6.29,6.29,0,0,0-2-.33,7.38,7.38,0,0,0-5.6,2.73c-1.34,1.74,4,2.68,9.62,7s8.82,5.48,15.5,5.48,9.18-6.37,9.18-11.58S76,55.82,71.17,52.88Z"/></svg>