<svg id="图层_1" data-name="图层 1" xmlns="http://www.w3.org/2000/svg" viewBox="0 0 80 80"><defs><style>.cls-1{fill:#666;}</style></defs><title>icon</title><path class="cls-1" d="M27,36.06c2.58,7.6,7.83,13.85,13,13.85s10.35-6.22,12.94-13.8h0c1.81,0,4.9-2,4.9-4.37s-1.46-4.37-3.28-4.37h0c0-.24,0-.48,0-.72,0-11-7.43-16.76-14.61-16.76S25.4,15.61,25.4,26.66c0,.26,0,.52,0,.78-1.58.31-2.8,2.11-2.8,4.31S25.21,35.77,27,36.06Z"/><path class="cls-1" d="M52.93,49.77c-2,4.12-6.13,12.48-8.62,15.49V62.32c0-1.83-1.42-4.06-1.42-5.28s1.52-1.52,1.52-3-.85-1.52-3.31-1.52H40c-2.47,0-3.31,0-3.31,1.52s1.52,1.82,1.52,3-1.42,3.45-1.42,5.28v2.94c-2.53-3.07-6.8-11.69-8.73-15.72a68.91,68.91,0,0,0-21.9,9.84V78.24H73.84V59.38A68.7,68.7,0,0,0,52.93,49.77Z"/><path class="cls-1" d="M27.39,1.76S21.55,11.51,31.55,15L37,11.6A10.24,10.24,0,0,1,27.39,1.76Z"/><path class="cls-1" d="M54,1.76S59.88,11.51,49.88,15L44.42,11.6A10.24,10.24,0,0,0,54,1.76Z"/></svg>