<svg id="图层_1" data-name="图层 1" xmlns="http://www.w3.org/2000/svg" viewBox="0 0 80 80"><defs><style>.cls-1{fill:#666;}</style></defs><title>icon</title><polygon class="cls-1" points="78.08 7.57 1.92 7.57 1.92 13.71 4.3 13.71 4.3 52.3 8.91 52.3 8.91 13.71 70.38 13.71 70.38 59.46 46.78 59.46 46.78 64.07 74.98 64.07 74.98 13.71 78.08 13.71 78.08 7.57"/><rect class="cls-1" x="37.92" y="43.22" width="6.14" height="9.63"/><rect class="cls-1" x="48.68" y="37.23" width="6.14" height="15.21"/><rect class="cls-1" x="59.43" y="24.14" width="6.15" height="28.3"/><path class="cls-1" d="M35.94,55.25s-2.09-.2-4.87-.36c-.17,8.55-1.58,14-4.48,15.46V61.3A1.35,1.35,0,0,0,27.77,60V58.62a1.37,1.37,0,0,0-1.36-1.36h-3a1.36,1.36,0,0,0-1.36,1.36V60a1.35,1.35,0,0,0,1.18,1.33v9.06c-2.91-1.45-4.3-6.92-4.48-15.46-2.78.16-4.87.36-4.87.36a5.6,5.6,0,0,0-5.6,5.61V68c0,3.1,8.69,4.48,16.81,4.48S41.54,71,41.54,68V60.86A5.6,5.6,0,0,0,35.94,55.25Z"/><path class="cls-1" d="M35,43.11C35,36.45,30.48,31,24.92,31S14.83,36.45,14.83,43.11c0,6.9,6.12,12.09,10.08,12.09S35,50,35,43.11Zm-17.93,0a12.13,12.13,0,0,1,.31-2.7c.26-.44.55-.88.83-1.26.8-1.1,1.45-2.2,3.09,0s7.32,3.22,11.44,3.36c0,.2,0,.4,0,.6,0,5.34-4.82,9.85-7.84,9.85S17.07,48.45,17.07,43.11Z"/></svg>