<svg id="图层_1" data-name="图层 1" xmlns="http://www.w3.org/2000/svg" viewBox="0 0 80 80"><defs><style>.cls-1{fill:#666;}</style></defs><title>icon</title><path class="cls-1" d="M43.18,36s-1.91-.18-4.45-.33c-.16,7.79-1.43,12.78-4.08,14.1V41.5a1.23,1.23,0,0,0,1.08-1.21V39.06a1.24,1.24,0,0,0-1.24-1.24H31.77a1.24,1.24,0,0,0-1.24,1.24V40.3a1.23,1.23,0,0,0,1.08,1.21v8.26c-2.65-1.32-3.92-6.31-4.08-14.1-2.54.14-4.45.33-4.45.33A5.11,5.11,0,0,0,18,41.1v1.41c0,2.83,7.92,9.16,15.33,9.16s15-6.33,15-9.16V41.1A5.11,5.11,0,0,0,43.18,36Z"/><path class="cls-1" d="M33.14,35.94c3.62,0,9.19-4.73,9.19-11,0-6.08-4.13-11-9.19-11s-9.19,4.94-9.19,11C23.94,31.21,29.52,35.94,33.14,35.94ZM26.26,22.46c.24-.4.51-.8.76-1.15.73-1,1.32-2,2.82,0s6.68,2.94,10.43,3.06c0,.18,0,.36,0,.54,0,4.87-4.39,9-7.15,9S26,29.79,26,24.92A11.26,11.26,0,0,1,26.26,22.46Z"/><path class="cls-1" d="M75.5,64,61.58,50.1A8.53,8.53,0,0,0,60.26,49,31.3,31.3,0,1,0,48.43,60.8a8.39,8.39,0,0,0,1.08,1.36L63.44,76.09A8.53,8.53,0,0,0,75.5,64Zm-66-30.74A23.65,23.65,0,1,1,33.14,56.93,23.65,23.65,0,0,1,9.49,33.28Z"/></svg>