<svg id="图层_1" data-name="图层 1" xmlns="http://www.w3.org/2000/svg" viewBox="0 0 80 80"><defs><style>.cls-1{fill:#666;}</style></defs><title>icon</title><path class="cls-1" d="M8.71,33.49A8.51,8.51,0,0,0,9.38,35a5.31,5.31,0,0,0,1.78,2,2.18,2.18,0,0,0,1.1.33,2.49,2.49,0,0,0,1.57-.66A6.09,6.09,0,0,0,15.14,35a8.91,8.91,0,0,0,.65-1.45h0c.5,0,1.34-.53,1.34-1.19s-.4-1.19-.9-1.19h0c0-.07,0-.13,0-.2,0-3-2-4.58-4-4.58s-4,1.56-4,4.58c0,.07,0,.14,0,.21a1.13,1.13,0,0,0-.76,1.18C7.51,32.92,8.21,33.41,8.71,33.49Z"/><path class="cls-1" d="M26,32.31c0,.61.71,1.1,1.21,1.18A8.51,8.51,0,0,0,27.88,35a5.31,5.31,0,0,0,1.78,2,2.18,2.18,0,0,0,1.1.33,2.49,2.49,0,0,0,1.57-.66A6.09,6.09,0,0,0,33.64,35a8.91,8.91,0,0,0,.65-1.45h0c.5,0,1.34-.53,1.34-1.19s-.4-1.19-.9-1.19h0c0-.07,0-.13,0-.2,0-3-2-4.58-4-4.58s-4,1.56-4,4.58c0,.07,0,.14,0,.21A1.13,1.13,0,0,0,26,32.31Z"/><path class="cls-1" d="M44.51,32.31c0,.61.71,1.1,1.21,1.18A8.51,8.51,0,0,0,46.38,35a5.31,5.31,0,0,0,1.78,2,2.18,2.18,0,0,0,1.1.33,2.49,2.49,0,0,0,1.57-.66A6.09,6.09,0,0,0,52.14,35a8.91,8.91,0,0,0,.65-1.45h0c.5,0,1.34-.53,1.34-1.19s-.4-1.19-.9-1.19h0c0-.07,0-.13,0-.2,0-3-2-4.58-4-4.58s-4,1.56-4,4.58c0,.07,0,.14,0,.21A1.13,1.13,0,0,0,44.51,32.31Z"/><path class="cls-1" d="M71.28,37.24a67.38,67.38,0,0,1-3.46,6.44s-2.8-5.4-3.33-6.5a18.82,18.82,0,0,0-6,2.69,18.74,18.74,0,0,0-5.72-2.63,67.38,67.38,0,0,1-3.46,6.44s-2.8-5.4-3.33-6.5a18.82,18.82,0,0,0-6,2.69,18.74,18.74,0,0,0-5.72-2.63,67.38,67.38,0,0,1-3.46,6.44s-2.8-5.4-3.33-6.5a18.82,18.82,0,0,0-6,2.69,18.74,18.74,0,0,0-5.72-2.63,67.38,67.38,0,0,1-3.46,6.44s-2.8-5.4-3.33-6.5a18.82,18.82,0,0,0-6,2.69V58.1a1.61,1.61,0,0,0,1.6,1.6H6.7V75.54H17.94V59.7h2a1.6,1.6,0,0,0,1.6-1.6,1.61,1.61,0,0,0,1.6,1.6h2.1V75.54H36.44V59.7h2A1.6,1.6,0,0,0,40,58.1a1.61,1.61,0,0,0,1.6,1.6h2.1V75.54H54.94V59.7h2a1.6,1.6,0,0,0,1.6-1.6,1.61,1.61,0,0,0,1.6,1.6h2.1V75.54H73.44V59.7h2A1.6,1.6,0,0,0,77,58.1V39.87A18.74,18.74,0,0,0,71.28,37.24Z"/><path class="cls-1" d="M63,32.31c0,.61.71,1.1,1.21,1.18A8.51,8.51,0,0,0,64.88,35a5.31,5.31,0,0,0,1.78,2,2.18,2.18,0,0,0,1.1.33,2.49,2.49,0,0,0,1.57-.66A6.09,6.09,0,0,0,70.64,35a8.91,8.91,0,0,0,.65-1.45h0c.5,0,1.34-.53,1.34-1.19s-.4-1.19-.9-1.19h0c0-.07,0-.13,0-.2,0-3-2-4.58-4-4.58s-4,1.56-4,4.58c0,.07,0,.14,0,.21A1.13,1.13,0,0,0,63,32.31Z"/><path class="cls-1" d="M17.82,22.55A9.18,9.18,0,0,0,18.49,24a5.28,5.28,0,0,0,1.78,2,2.14,2.14,0,0,0,1.1.34,2.51,2.51,0,0,0,1.57-.66A6.11,6.11,0,0,0,24.26,24a8.76,8.76,0,0,0,.65-1.45h0c.5,0,1.34-.54,1.34-1.19s-.4-1.2-.9-1.2h0c0-.07,0-.13,0-.2,0-3-2-4.58-4-4.58s-4,1.56-4,4.58c0,.07,0,.14,0,.21a1.14,1.14,0,0,0-.76,1.18C16.62,22,17.33,22.47,17.82,22.55Z"/><path class="cls-1" d="M35.12,21.38c0,.6.71,1.1,1.2,1.18A9.18,9.18,0,0,0,37,24a5.28,5.28,0,0,0,1.78,2,2.14,2.14,0,0,0,1.1.34,2.51,2.51,0,0,0,1.57-.66A6.11,6.11,0,0,0,42.76,24a8.76,8.76,0,0,0,.65-1.45h0c.5,0,1.34-.54,1.34-1.19s-.4-1.2-.9-1.2h0c0-.07,0-.13,0-.2,0-3-2-4.58-4-4.58s-4,1.56-4,4.58c0,.07,0,.14,0,.21A1.14,1.14,0,0,0,35.12,21.38Z"/><path class="cls-1" d="M53.62,21.38c0,.6.71,1.1,1.2,1.18A9.18,9.18,0,0,0,55.49,24a5.28,5.28,0,0,0,1.78,2,2.14,2.14,0,0,0,1.1.34,2.51,2.51,0,0,0,1.57-.66A6.11,6.11,0,0,0,61.26,24a8.76,8.76,0,0,0,.65-1.45h0c.5,0,1.34-.54,1.34-1.19s-.4-1.2-.9-1.2h0c0-.07,0-.13,0-.2,0-3-2-4.58-4-4.58s-4,1.56-4,4.58c0,.07,0,.14,0,.21A1.14,1.14,0,0,0,53.62,21.38Z"/><path class="cls-1" d="M27.14,11.61a8.85,8.85,0,0,0,.67,1.49,5.28,5.28,0,0,0,1.78,2,2.15,2.15,0,0,0,1.1.34,2.52,2.52,0,0,0,1.57-.66,6,6,0,0,0,1.32-1.66,8.46,8.46,0,0,0,.65-1.45h0c.5,0,1.34-.54,1.34-1.19s-.4-1.2-.9-1.2h0c0-.07,0-.13,0-.2,0-3-2-4.58-4-4.58s-4,1.56-4,4.58c0,.07,0,.14,0,.21a1.14,1.14,0,0,0-.76,1.18C25.93,11,26.64,11.54,27.14,11.61Z"/><path class="cls-1" d="M45.64,11.61a8.85,8.85,0,0,0,.67,1.49,5.28,5.28,0,0,0,1.78,2,2.15,2.15,0,0,0,1.1.34,2.52,2.52,0,0,0,1.57-.66,6,6,0,0,0,1.32-1.66,8.46,8.46,0,0,0,.65-1.45h0c.5,0,1.34-.54,1.34-1.19s-.4-1.2-.9-1.2h0c0-.07,0-.13,0-.2,0-3-2-4.58-4-4.58s-4,1.56-4,4.58c0,.07,0,.14,0,.21a1.14,1.14,0,0,0-.76,1.18C44.43,11,45.14,11.54,45.64,11.61Z"/></svg>