<svg id="图层_1" data-name="图层 1" xmlns="http://www.w3.org/2000/svg" viewBox="0 0 80 80"><defs><style>.cls-1{fill:#666;}</style></defs><title>icon</title><path class="cls-1" d="M43.77,14.73c-4-.63-7.4-.85-9.93,5.71A70.23,70.23,0,0,1,29,30.79s-1.48,4.44,1.48,6.13,7.4-2.54,8.24-5.08c0,0,1.26-4.85,4.22-4.22s7.21,5.92,7.21,5.92L61.31,45.8,71.66,34,56.87,19S47.79,15.37,43.77,14.73Z"/><path class="cls-1" d="M24.21,46.54a3.55,3.55,0,1,0-5-5l-4.63,4.63a3.55,3.55,0,1,0,5,5Z"/><path class="cls-1" d="M29.93,52.68a3.55,3.55,0,1,0-5-5l-4.64,4.63a3.56,3.56,0,1,0,5,5Z"/><path class="cls-1" d="M35.67,58.66a3.55,3.55,0,1,0-5-5L26,58.27a3.55,3.55,0,1,0,5,5Z"/><path class="cls-1" d="M36.42,59.41,31.79,64a3.55,3.55,0,1,0,5,5l4.63-4.63a3.55,3.55,0,1,0-5-5Z"/><path class="cls-1" d="M15.94,40.5a1.68,1.68,0,0,0,1.21-2.87L4.69,24.75A1.69,1.69,0,0,0,2.26,27.1L14.73,40A1.68,1.68,0,0,0,15.94,40.5Z"/><path class="cls-1" d="M63.64,49a4.64,4.64,0,0,1-4.13,1.64c-.53-.41-1.9-1.6-2.6-2.2-1.24-1.07-2.31-2-3.42-.75s0,2.29.84,3.07L57,53.19l.22.23c.47.52,1.5,1.81.76,2.55a1.57,1.57,0,0,1-2.1.2,4.87,4.87,0,0,1-.45-.28l-3.26-3.13c-.13-.12-.28-.26-.44-.4l-.12-.12h0a1.64,1.64,0,0,0-2.44,0c-.86.88-.53,1.66.12,2.43v0l.2.18c.2.22.43.44.67.67l3.34,3.25c.11.15.24.81-.51,1.86-1.08,1.49-2,1.2-2.28,1.1l-.12,0L47.8,58.9l-.45-.45L47,58.11l0,0c-.73-.61-1.52-.93-2.4-.09s-.59,1.62,0,2.4l0,0,.36.37.49.51c.86.9,2.61,2.7,3,3.08,1.05,1.55.3,2.29.06,2.54a3,3,0,0,1-3.36.46,1.69,1.69,0,0,0-1.52,3,6.79,6.79,0,0,0,3,.69,5.92,5.92,0,0,0,4.28-1.77,4.79,4.79,0,0,0,1.41-4.3,5.85,5.85,0,0,0,3.39-2.45,6.37,6.37,0,0,0,1.2-2.76,4.68,4.68,0,0,0,3.49-1.49,4.18,4.18,0,0,0,1-4.39A8.67,8.67,0,0,0,66,51.4,1.69,1.69,0,0,0,63.64,49Z"/><path class="cls-1" d="M77.59,23,65,9.59c-1-1.09-3-.95-4.33.34l-1.54,1.45c-1.36,1.28-1.63,3.2-.59,4.3L71.13,29.09c1,1.1,3,1,4.33-.33L77,27.32C78.36,26,78.62,24.11,77.59,23Z"/></svg>