<svg id="图层_1" data-name="图层 1" xmlns="http://www.w3.org/2000/svg" viewBox="0 0 204.66 56.75"><defs><style>.cls-1,.cls-2{fill:#fff;}.cls-2{stroke:#fff;stroke-miterlimit:10;}</style></defs><title>智筹－顾问+完稿</title><rect id="_路径_" data-name="&lt;路径&gt;" class="cls-1" x="142.84" y="11.27" width="9.58" height="2.44"/><path id="_路径_2" data-name="&lt;路径&gt;" class="cls-1" d="M141.54,11.26c0-.37-.07-1.59,1.15-1.59h10.07V7.27H139a2.21,2.21,0,0,0-2.29,2.31v4.53h4.79Z"/><path id="_路径_3" data-name="&lt;路径&gt;" class="cls-1" d="M1.27,19.67H26.11L10.47,31.88C3,38.15,1.27,44.72,1.27,48.64v5.22h43.8v-13H20.23l15.5-12.1h0c7.86-6.49,9.35-13.62,9.35-17.16V6.62H1.27Z"/><rect id="_路径_4" data-name="&lt;路径&gt;" class="cls-1" x="88.34" y="19.24" width="6.4" height="3.06"/><rect id="_路径_5" data-name="&lt;路径&gt;" class="cls-1" x="123.12" y="11.27" width="9.58" height="2.44"/><path id="_路径_6" data-name="&lt;路径&gt;" class="cls-1" d="M82.33,23.44a6.53,6.53,0,0,1,.78,0,3.75,3.75,0,0,0,3.77-2.82l.79-4.51h7.07V13.66H88.08l.65-4.07h6V7.16H81.28a.94.94,0,0,1-.71-.23.57.57,0,0,1-.14-.4V5.26H76.77V6.93a2.83,2.83,0,0,0,.89,2,3.08,3.08,0,0,0,2.09.67h3.71l-.66,4.07h-6v2.41h5.6l-.67,3.49a2,2,0,0,1-.52,1,2.57,2.57,0,0,1-1.32.37H76.75v2.5h5.57Z"/><path id="_路径_7" data-name="&lt;路径&gt;" class="cls-1" d="M121.83,11.09c0-.39,0-1.43,1.16-1.43H133V7.27H119.33A2.1,2.1,0,0,0,117,9.59v4.52h4.79Z"/><rect id="_路径_8" data-name="&lt;路径&gt;" class="cls-1" x="132.56" y="35.51" width="10.18" height="2.82"/><path id="_路径_9" data-name="&lt;路径&gt;" class="cls-1" d="M150.28,42a2.44,2.44,0,0,0,2.49-2.56v-6.2h0V30.76H132.56v2.47h14.86v5.19c0,.47-.27.66-1.08.66h-3.65V42h7.6Z"/><path id="_复合路径_" data-name="&lt;复合路径&gt;" class="cls-1" d="M79.3,42h26.76c2.59,0,3.92-1.22,3.92-3.72V25.49H79.3Zm6-14H104v4.17H85.28Zm0,6.64H104v4a.94.94,0,0,1-1,1,1.66,1.66,0,0,0-.32,0H85.28Z"/><path id="_复合路径_2" data-name="&lt;复合路径&gt;" class="cls-1" d="M96.54,22.48h12c2.64,0,3.92-1.13,3.92-3.72V7.17H96.54ZM101.2,9.63h6.59v9.44a1,1,0,0,1-1.1,1H101.2Z"/><path id="_路径_10" data-name="&lt;路径&gt;" class="cls-1" d="M131.45,28.48h21.32V26H132.65l1.05-2.16h19.07V21.39H134.9L136,19.23h16.81V16.76H137.16l1-2.14h-5.87l-1,2.14H117v2.47h13L129,21.39H117v2.47h10.78L126.76,26H117v2.46h8.52l-4.5,9.21a2.66,2.66,0,0,1-2.1,1.54H117v2.49h5c1,0,3.07-.61,4.92-4Z"/><path id="_路径_11" data-name="&lt;路径&gt;" class="cls-1" d="M66.45,16.82a6.74,6.74,0,1,1,0-8V2.7a11.47,11.47,0,1,0,0,20.23Z"/><path class="cls-1" d="M187.78,11.24a1.84,1.84,0,0,1-.36.87,1.35,1.35,0,0,1-.86.19h-.64a5.31,5.31,0,0,0-.58,0,.27.27,0,0,0-.25.31q0,.31,0,.61c0,.2,0,.41,0,.64a.26.26,0,0,0,.2.3,2.23,2.23,0,0,0,.86-.14q.84-.25.94.34a.92.92,0,0,1-.59,1.06l-.59.25-.69.28a.27.27,0,0,0-.19.28q0,.62.06,1.14c0,.34,0,.65.06.92a12.38,12.38,0,0,1,0,2.42,9.09,9.09,0,0,1-.47,2,5.35,5.35,0,0,1-.83,1.51,2.56,2.56,0,0,1-1.09.84,7.52,7.52,0,0,1-4.44.52,6.09,6.09,0,0,1-3.44-2.42q-.44-.56-.27-.77c.11-.13.32-.14.61,0a9,9,0,0,0,2.51.69,5,5,0,0,0,2.09-.17,3.19,3.19,0,0,0,1.52-1,3.82,3.82,0,0,0,.78-1.84q.06-.47.11-1.16t0-1.41c0-.31-.14-.43-.41-.34q-.66.25-1.28.45l-1.22.42a2,2,0,0,1-1.39,0,1.14,1.14,0,0,1-.8-1,1.36,1.36,0,0,1,.36-1.17,2.18,2.18,0,0,1,1.33-.61l1.59-.23,1.59-.23a.28.28,0,0,0,.28-.31V12.71a.28.28,0,0,0-.31-.31l-1.12.08-.91.11a9.59,9.59,0,0,0-1,.23l-.83.23q-.87.25-1.22-.75a1.08,1.08,0,0,1,0-.83,1.64,1.64,0,0,1,.76-.8,3.53,3.53,0,0,1,1.41-.56,1.4,1.4,0,0,1,.84.09,1.84,1.84,0,0,0,.88.13,2.37,2.37,0,0,1,.47,0l.59,0c.25,0,.35-.11.31-.34s0-.47,0-.72,0-.45,0-.59q-.22-1.19.22-1.61t1.56-.17a2,2,0,0,1,1,.45,2.1,2.1,0,0,1,.53.73,2.15,2.15,0,0,1,.17.84,3.34,3.34,0,0,1-.09.81,1.11,1.11,0,0,0-.09.62c0,.1.15.16.31.16a3.87,3.87,0,0,1,.75.06,4.27,4.27,0,0,1,1.22.27A.33.33,0,0,1,187.78,11.24Zm14,8.62a6.37,6.37,0,0,0-.25,1.42q-.13,1.14-.22,2.55a3.45,3.45,0,0,1-.27,1,1.42,1.42,0,0,1-.77.7,1.81,1.81,0,0,1-.86.16,3.82,3.82,0,0,1-1-.25l-.62-.14a4.83,4.83,0,0,0-.91-.08q-.72,0-1.47,0a12.82,12.82,0,0,1-1.37-.12q-.63-.09-1.19-.12a6.16,6.16,0,0,0-1.41.13l-.41.11a3.35,3.35,0,0,0-.47.2,1.48,1.48,0,0,1-.55.06c-.28,0-.54,0-.76,0a1,1,0,0,1-.73-.55,2.25,2.25,0,0,1-.33-1.23v-1.8q0-.7,0-1.22t-.06-.91c0-.26-.07-.55-.11-.86a3.07,3.07,0,0,1,0-1,.28.28,0,0,0-.28-.34,2.5,2.5,0,0,1-.87-.28,2.12,2.12,0,0,1-.72-.66c-.21-.27-.3-.46-.28-.56s.15-.19.38-.25a12.77,12.77,0,0,0,3.9-1.87,8.22,8.22,0,0,0,2.66-3.09q.22-.47-.59-.47a6.66,6.66,0,0,0-1.08.11,5.63,5.63,0,0,0-.89.2,2,2,0,0,1-1,.09.78.78,0,0,1-.59-.44,1.28,1.28,0,0,1,0-.83,2.06,2.06,0,0,1,.7-1,2.34,2.34,0,0,1,.69-.39,3.4,3.4,0,0,1,.91-.22,3.46,3.46,0,0,1,.88,0,1.23,1.23,0,0,1,.62.25,1.82,1.82,0,0,0,.59.33,4.4,4.4,0,0,0,.59.2,3.64,3.64,0,0,1,.59.11l1,.22,1.16.23.89.19a6.54,6.54,0,0,0,1,.11,1.91,1.91,0,0,0,.81-.11,1.6,1.6,0,0,1,1.14-.12A1.64,1.64,0,0,1,201,10a1.86,1.86,0,0,1,.45.87,2.94,2.94,0,0,1-.14,1.06,4.55,4.55,0,0,1-.33.81q-.23.47-.52,1t-.58.92a4.73,4.73,0,0,1-.55.69,10.69,10.69,0,0,1-1.59,1.34,4.31,4.31,0,0,1-1.47.66q-.16,0,0,.09a2.79,2.79,0,0,0,.73.13,5.43,5.43,0,0,0,1.23,0,4,4,0,0,0,.92-.17,2.48,2.48,0,0,1,1-.22,2.33,2.33,0,0,1,1,.53,1.76,1.76,0,0,1,.8,1A2.48,2.48,0,0,1,201.78,19.86Zm-3.59-7.43q.31-1-.87-1.34A1.42,1.42,0,0,0,197,11l-.72-.09a.25.25,0,0,0-.31.13,23,23,0,0,1-3,3.42,19.17,19.17,0,0,1-3,2.33q-.62.41-.58.56c0,.1.33.14.89.09l1.08-.06,1-.06c.33,0,.51-.07.53-.14s-.08-.2-.31-.39a2.31,2.31,0,0,1-.59-1.13.33.33,0,0,1,.13-.42.39.39,0,0,1,.41,0,4.25,4.25,0,0,0,1.58.36,3.87,3.87,0,0,0,1.73-.45,2.81,2.81,0,0,0,.59-.44,7.74,7.74,0,0,0,.69-.72q.34-.41.62-.81A2.65,2.65,0,0,0,198.19,12.43Zm.56,7.59a.62.62,0,0,0-.22-.52,2.09,2.09,0,0,0-.91-.27,7.8,7.8,0,0,0-.94,0h-1.81c-.69,0-1.38,0-2.09,0s-1.31.05-1.81.09q-.28,0-.28.31,0,.72,0,1.58t.13,1.7a.28.28,0,0,0,.31.28q2.69.09,4.29.08t2.11-.08a1.58,1.58,0,0,0,.63-.17.77.77,0,0,0,.25-.42,6.84,6.84,0,0,0,.27-1.28A11.71,11.71,0,0,0,198.75,20Z"/><path class="cls-1" d="M186.6,35a.84.84,0,0,1-.42.47,2.2,2.2,0,0,1-1.11.22q-.19,0-.19.38,0,2.06,0,4v4c0,.23,0,.38.11.44a.52.52,0,0,0,.42,0c.31,0,.45,0,.42.23s-.18.35-.45.45a.81.81,0,0,0-.41.28,1.09,1.09,0,0,0-.09.53v3.47a6.57,6.57,0,0,1-.06,1,1.3,1.3,0,0,1-.22.58.8.8,0,0,1-.42.28,3.29,3.29,0,0,1-.67.11q-.84.06-1.08-.28a2.52,2.52,0,0,1-.17-1.41q.06-.75.08-1.45t0-1.39c0-.29,0-.46-.12-.5a1,1,0,0,0-.59.09q-1.31.38-2.69.73l-3.16.8a2,2,0,0,1-1.36,0q-.48-.25-.39-1.19a1.65,1.65,0,0,1,.44-1.12,2.28,2.28,0,0,1,1.38-.41l.31,0,.31,0c.29,0,.47,0,.55-.12a.73.73,0,0,0,.11-.47q.09-2.56.16-4.64t0-3.67c0-.21,0-.34-.11-.39a.52.52,0,0,0-.36,0,4.45,4.45,0,0,0-.69.16,1.06,1.06,0,0,1-.72.19A.53.53,0,0,1,175,36a.83.83,0,0,1-.06-.51.85.85,0,0,1,.23-.48,4.34,4.34,0,0,1,1.27-1,1,1,0,0,1,.67-.08,1.92,1.92,0,0,0,.48.17,5.67,5.67,0,0,0,.67.08h7.5a.83.83,0,0,1,.66.25A.59.59,0,0,1,186.6,35Zm-4.16,8.78q0-.62-.19-.8a2.23,2.23,0,0,0-1.12-.17q-.59,0-.94,0a1,1,0,0,0-.52.16.56.56,0,0,0-.22.36,3.43,3.43,0,0,0,0,.64q0,.75.22.94t1.25.06a5.86,5.86,0,0,0,.83-.09,1.09,1.09,0,0,0,.45-.19.57.57,0,0,0,.2-.34A4.85,4.85,0,0,0,182.44,43.74Zm.09-3.19a5.67,5.67,0,0,0,0-.7.61.61,0,0,0-.16-.41.74.74,0,0,0-.41-.19,4.46,4.46,0,0,0-.73,0,7.47,7.47,0,0,0-1,0,1.16,1.16,0,0,0-.53.16.55.55,0,0,0-.23.38,3.58,3.58,0,0,0,0,.63,2.38,2.38,0,0,0,0,.53.44.44,0,0,0,.2.28,1.19,1.19,0,0,0,.48.13c.22,0,.52,0,.89,0a3,3,0,0,0,1.19-.14Q182.54,41.05,182.53,40.55Zm.09-3.91a2.73,2.73,0,0,0,0-.58.44.44,0,0,0-.2-.3,1.08,1.08,0,0,0-.48-.11q-.33,0-.92,0a2.16,2.16,0,0,0-1.23.2,1.27,1.27,0,0,0-.2.86,1.2,1.2,0,0,0,.19.83,2.11,2.11,0,0,0,1.13.17c.44,0,.78,0,1,0a1.2,1.2,0,0,0,.53-.14.44.44,0,0,0,.2-.33A4.47,4.47,0,0,0,182.63,36.65Zm20.65,5.87q-.81,1.94-1.8,2.3a1.86,1.86,0,0,1-1.86-.3,3.54,3.54,0,0,0-.83-.44,10.47,10.47,0,0,0-1.28-.41,15.82,15.82,0,0,0-1.58-.31,11.54,11.54,0,0,0-1.69-.12,2.83,2.83,0,0,0-1.06.14,1.88,1.88,0,0,0-.69.77q-.16.25,0,.39a.87.87,0,0,0,.53.14l1.61,0q.58,0,1.17.08a4.36,4.36,0,0,0,.86,0,.82.82,0,0,0,.39-.12,1.43,1.43,0,0,1,.89-.16,2.06,2.06,0,0,1,1.17.44.66.66,0,0,1,.2.31,1.72,1.72,0,0,1,0,.66,10.73,10.73,0,0,1-.17,1.17q-.14.73-.42,1.89a3.77,3.77,0,0,1-1.31,2,4.84,4.84,0,0,1-2.59.92,5.48,5.48,0,0,1-1.84-.12,6.31,6.31,0,0,1-1.67-.66,6.21,6.21,0,0,1-1.33-1,4,4,0,0,1-.84-1.19c-.1-.23-.1-.37,0-.44s.29,0,.56.06a18.32,18.32,0,0,0,2.8,1,4.43,4.43,0,0,0,1.91.13,1.91,1.91,0,0,0,1.22-.8,5.29,5.29,0,0,0,.73-1.76q.22-1.06-.66-1.09L195,46l-.89,0-.81,0-.59,0a3.67,3.67,0,0,0-.73.06,1.69,1.69,0,0,0-.55.22,2.72,2.72,0,0,1-.94.47,1.51,1.51,0,0,1-.78-.09q-.63-.22-.66-.7a1.21,1.21,0,0,1,.31-.89,6.72,6.72,0,0,0,.44-.56q.22-.31.47-.62t.22-.45-.44,0a13.58,13.58,0,0,0-2.08.33,4.19,4.19,0,0,0-1.11.42,1.38,1.38,0,0,1-.69.23.94.94,0,0,1-.56-.12.58.58,0,0,1-.27-.41.82.82,0,0,1,.2-.61,5.58,5.58,0,0,1,1.34-1.48q.53-.33.69-.2a.93.93,0,0,0,.39.14,6.73,6.73,0,0,0,1,0l4.08,0q1.89,0,3.59,0l3.25.06q1.55,0,3,.09c.29,0,.46.07.5.14S203.38,42.23,203.28,42.52ZM200,36.12q-.06.66-.12,1.5t-.12,1.59a2.71,2.71,0,0,1-.28,1,1.86,1.86,0,0,1-.52.62,1.36,1.36,0,0,1-.59.27.66.66,0,0,1-.48-.08,1.83,1.83,0,0,0-1-.34q-1.53-.06-3.2-.08l-3.55,0a2,2,0,0,0-.45,0,6.57,6.57,0,0,0-.7.23q-1.16.41-1.22-1-.06-1.22-.09-2.3t-.09-1.89a2,2,0,0,1,.06-.75,1.2,1.2,0,0,1,.53-.56.94.94,0,0,1,.69-.12,2,2,0,0,1,.72.25,1,1,0,0,0,.33.16,2.58,2.58,0,0,0,.48,0h.73q.36,0,.7,0a.79.79,0,0,0,.55-.17,2,2,0,0,0,.14-.86,1.13,1.13,0,0,1,.42-1,1.36,1.36,0,0,1,.92-.19,1.23,1.23,0,0,1,1,.5,1.61,1.61,0,0,1,.22,1.06c0,.27,0,.44,0,.5a.84.84,0,0,0,.47.13,5,5,0,0,0,.55,0h.52a2,2,0,0,0,1-.19,1.2,1.2,0,0,1,.75-.14,1.92,1.92,0,0,1,1,.27A1.58,1.58,0,0,1,200,36.12Zm-7.53.22a.74.74,0,0,0-.17-.58,2.07,2.07,0,0,0-1-.14,3.2,3.2,0,0,0-1.11.11.47.47,0,0,0-.2.45c0,.35.07.58.2.69a2.16,2.16,0,0,0,1.14.09,2.66,2.66,0,0,0,1-.14Q192.5,36.71,192.5,36.34Zm-.06,2.44a1,1,0,0,0-.16-.67,1.6,1.6,0,0,0-.91-.11,4.13,4.13,0,0,0-1.11.17q-.23.11-.23.61c0,.33.07.55.22.64a2.64,2.64,0,0,0,1.13.14,1.88,1.88,0,0,0,.89-.12Q192.44,39.31,192.44,38.77Zm5,.28a1.48,1.48,0,0,0-.16-.86,1.06,1.06,0,0,0-.69-.2,5.43,5.43,0,0,0-.56,0h-.59a.74.74,0,0,0-.47.09,1,1,0,0,0-.12.53,1.75,1.75,0,0,0,0,.81q.09.16.53.16h.72q.34,0,.69,0a.64.64,0,0,0,.47-.16A.51.51,0,0,0,197.4,39.05Zm.13-2.75a.52.52,0,0,0-.53-.56q-.34,0-.67,0c-.22,0-.44,0-.67,0s-.48,0-.56.09a.83.83,0,0,0-.16.5c0,.27,0,.44.08.52a1,1,0,0,0,.58.14l.66,0q.31,0,.63,0c.31,0,.5,0,.56-.09A1.17,1.17,0,0,0,197.53,36.31Z"/><line id="_路径_12" data-name="&lt;路径&gt;" class="cls-2" x1="164.86" y1="7" x2="164.86" y2="54.51"/><path class="cls-1" d="M83.22,53.38h-5V52.32l2.83-3H78.46v-1.2H83v1.06l-2.92,3h3.09Z"/><path class="cls-1" d="M85.37,52.75v2.66h-1.6V48.16h1.6V49A2.09,2.09,0,0,1,87.17,48q2,.1,2.06,2.63,0,2.86-2.29,2.86A1.89,1.89,0,0,1,85.37,52.75Zm0-2.09v.4q0,1.23,1.06,1.26t1.13-1.63q0-1.36-1.06-1.4T85.37,50.66Z"/><path class="cls-1" d="M91.42,53.42H89.69V51.75h1.73Z"/><path class="cls-1" d="M96.73,53.38h-5V52.32l2.83-3H92v-1.2h4.59v1.06l-2.92,3h3.09Z"/><path class="cls-1" d="M102.51,53.38h-1.63V50.46q0-1.16-1-1.16t-1,1.23v2.86h-1.6V45.6h1.6V49a2.12,2.12,0,0,1,1.7-.93q1.93,0,1.93,2.16Z"/><path class="cls-1" d="M105,47.43H103.3V46.07H105Zm0,6H103.3V48.2H105Z"/><path class="cls-1" d="M111.31,49.79l-1.63.27a1.19,1.19,0,0,0-1.06-.76q-1.26.07-1.33,1.53t1.33,1.5a1.06,1.06,0,0,0,1.06-.93l1.73.2a2.58,2.58,0,0,1-2.86,1.93q-2.86-.07-2.92-2.73.1-2.66,3-2.76A2.78,2.78,0,0,1,111.31,49.79Z"/><path class="cls-1" d="M117.29,53.38h-1.63V50.46q0-1.16-1-1.16t-1,1.23v2.86h-1.6V45.6h1.6V49a2.12,2.12,0,0,1,1.7-.93q1.93,0,1.93,2.16Z"/><path class="cls-1" d="M123.57,50.82q-.1,2.59-2.86,2.69-2.73-.17-2.86-2.69A2.65,2.65,0,0,1,120.74,48,2.62,2.62,0,0,1,123.57,50.82Zm-1.66,0q0-1.5-1.23-1.53t-1.16,1.53q0,1.46,1.16,1.5T121.9,50.82Z"/><path class="cls-1" d="M129.41,53.38h-1.63v-.76a1.81,1.81,0,0,1-1.63.9q-2,0-2-2.16V48.16h1.6v3.06q0,1.1,1,1.1t1-1.23V48.16h1.63Z"/><path class="cls-1" d="M131.73,53.42H130V51.75h1.73Z"/><path class="cls-1" d="M137.88,49.79l-1.63.27a1.19,1.19,0,0,0-1.06-.76q-1.26.07-1.33,1.53t1.33,1.5a1.06,1.06,0,0,0,1.06-.93l1.73.2a2.58,2.58,0,0,1-2.86,1.93q-2.86-.07-2.92-2.73.1-2.66,3-2.76A2.78,2.78,0,0,1,137.88,49.79Z"/><path class="cls-1" d="M144.09,50.82q-.1,2.59-2.86,2.69-2.73-.17-2.86-2.69A2.65,2.65,0,0,1,141.26,48,2.62,2.62,0,0,1,144.09,50.82Zm-1.66,0q0-1.5-1.23-1.53T140,50.82q0,1.46,1.16,1.5T142.43,50.82Z"/><path class="cls-1" d="M153.13,53.38H151.5v-3q0-1.16-.86-1.13t-.93,1.2v2.89h-1.63v-3q0-1.13-.86-1.1t-.93,1.2v2.89h-1.6V48.16h1.6V49A1.9,1.9,0,0,1,148,48a1.5,1.5,0,0,1,1.53,1,2,2,0,0,1,1.83-1q1.73,0,1.73,2.13Z"/></svg>