<svg id="图层_1" data-name="图层 1" xmlns="http://www.w3.org/2000/svg" xmlns:xlink="http://www.w3.org/1999/xlink" viewBox="0 0 750 594"><defs><style>.cls-1,.cls-8{fill:none;}.cls-2{clip-path:url(#clip-path);}.cls-3{fill:#d9eef2;}.cls-25,.cls-27,.cls-4{fill:#32adc6;}.cls-5{clip-path:url(#clip-path-2);}.cls-6{fill:#71c7d6;}.cls-7{fill:#fff;stroke-width:5px;}.cls-7,.cls-8{stroke:#000;stroke-miterlimit:10;}.cls-8{stroke-width:3px;}.cls-9{font-size:30.78px;letter-spacing:0.02em;}.cls-10,.cls-11,.cls-12,.cls-13,.cls-14,.cls-15,.cls-16,.cls-17,.cls-18,.cls-19,.cls-20,.cls-21,.cls-22,.cls-23,.cls-24,.cls-9{font-family:FZLTZHK--GBK1-0, Lantinghei SC;font-weight:700;}.cls-10{font-size:23.29px;letter-spacing:0.02em;}.cls-11{font-size:30.82px;letter-spacing:0.02em;}.cls-12{font-size:30.81px;letter-spacing:0.02em;}.cls-13{font-size:30.81px;letter-spacing:0.02em;}.cls-14{font-size:25.61px;letter-spacing:0.02em;}.cls-15{font-size:23.29px;letter-spacing:0.02em;}.cls-16{font-size:25.68px;letter-spacing:0.02em;}.cls-17{font-size:25.68px;letter-spacing:0.02em;}.cls-18{font-size:25.68px;letter-spacing:0.02em;}.cls-19{font-size:20.55px;letter-spacing:0.02em;}.cls-20{font-size:20.55px;letter-spacing:0.02em;}.cls-21{font-size:23.29px;letter-spacing:0.02em;}.cls-22{font-size:20.53px;letter-spacing:0.02em;}.cls-23{font-size:20.4px;letter-spacing:0.02em;}.cls-24{font-size:20.4px;letter-spacing:0.02em;}.cls-25{font-size:44.24px;letter-spacing:0.02em;}.cls-25,.cls-27{font-family:FZLTTHK--GBK1-0, Lantinghei SC;}.cls-26{letter-spacing:-0.52em;}.cls-27{font-size:29.81px;letter-spacing:0.08em;}.cls-28{letter-spacing:-0.44em;}</style><clipPath id="clip-path"><rect class="cls-1" x="-1402" y="58" width="1200" height="386"/></clipPath><clipPath id="clip-path-2"><polygon class="cls-1" points="1.99 -95 748.24 -95 748.24 553.53 1.03 408.45 1.99 -95"/></clipPath></defs><title>新版官网171220</title><g class="cls-2"><image width="1800" height="385" transform="translate(-1407 32.91) scale(1.07)" xlink:href="../banner4副本.jpg"/></g><polygon class="cls-3" points="1.03 290.75 746.19 290.39 746.19 1335.95 1.03 1335.95 1.03 290.75"/><polygon class="cls-4" points="1.03 -64 750 -64 750 553.53 1.03 407.36 1.03 -64"/><g class="cls-5"><circle class="cls-6" cx="32.52" cy="513.4" r="19.8"/><circle class="cls-6" cx="81.56" cy="513.4" r="19.8"/><circle class="cls-6" cx="130.6" cy="513.4" r="19.8"/><circle class="cls-6" cx="179.63" cy="513.4" r="19.8"/><circle class="cls-6" cx="228.67" cy="513.4" r="19.8"/><circle class="cls-6" cx="277.7" cy="513.4" r="19.8"/><circle class="cls-6" cx="326.74" cy="513.4" r="19.8"/><circle class="cls-6" cx="375.78" cy="513.4" r="19.8"/><circle class="cls-6" cx="424.81" cy="513.4" r="19.8"/><circle class="cls-6" cx="473.85" cy="513.4" r="19.8"/><circle class="cls-6" cx="522.88" cy="513.4" r="19.8"/><circle class="cls-6" cx="571.92" cy="512.41" r="19.8"/><circle class="cls-6" cx="620.96" cy="512.41" r="19.8"/><circle class="cls-6" cx="669.99" cy="512.41" r="19.8"/><circle class="cls-6" cx="719.03" cy="513.4" r="19.8"/><circle class="cls-6" cx="32.71" cy="457.14" r="17.76"/><circle class="cls-6" cx="81.72" cy="457.14" r="17.76"/><circle class="cls-6" cx="130.72" cy="457.14" r="17.76"/><circle class="cls-6" cx="179.73" cy="457.14" r="17.76"/><circle class="cls-6" cx="228.74" cy="457.14" r="17.76"/><circle class="cls-6" cx="277.75" cy="458.14" r="17.76"/><circle class="cls-6" cx="326.75" cy="457.14" r="17.76"/><circle class="cls-6" cx="375.76" cy="457.14" r="17.76"/><circle class="cls-6" cx="424.77" cy="457.14" r="17.76"/><circle class="cls-6" cx="473.78" cy="457.14" r="17.76"/><circle class="cls-6" cx="522.78" cy="457.14" r="17.76"/><circle class="cls-6" cx="571.79" cy="457.14" r="17.76"/><circle class="cls-6" cx="620.8" cy="457.14" r="17.76"/><circle class="cls-6" cx="669.81" cy="457.14" r="17.76"/><circle class="cls-6" cx="718.81" cy="457.14" r="17.76"/><circle class="cls-6" cx="33.07" cy="401.51" r="15.73"/><circle class="cls-6" cx="82.1" cy="401.51" r="15.73"/><circle class="cls-6" cx="131.13" cy="401.51" r="15.73"/><circle class="cls-6" cx="180.16" cy="401.51" r="15.73"/><circle class="cls-6" cx="229.2" cy="401.51" r="15.73"/><circle class="cls-6" cx="278.23" cy="401.51" r="15.73"/><circle class="cls-6" cx="327.26" cy="401.51" r="15.73"/><circle class="cls-6" cx="376.29" cy="401.51" r="15.73"/><circle class="cls-6" cx="425.33" cy="401.51" r="15.73"/><circle class="cls-6" cx="474.36" cy="401.51" r="15.73"/><circle class="cls-6" cx="523.39" cy="401.51" r="15.73"/><circle class="cls-6" cx="572.43" cy="401.51" r="15.73"/><circle class="cls-6" cx="621.46" cy="401.51" r="15.73"/><circle class="cls-6" cx="670.49" cy="401.51" r="15.73"/><circle class="cls-6" cx="719.52" cy="401.51" r="15.73"/><circle class="cls-6" cx="32.77" cy="347.33" r="13.65"/><circle class="cls-6" cx="81.76" cy="347.33" r="13.65"/><circle class="cls-6" cx="130.76" cy="347.33" r="13.65"/><circle class="cls-6" cx="179.76" cy="347.33" r="13.65"/><circle class="cls-6" cx="228.76" cy="347.33" r="13.65"/><circle class="cls-6" cx="277.76" cy="347.33" r="13.65"/><circle class="cls-6" cx="326.76" cy="347.33" r="13.65"/><circle class="cls-6" cx="375.76" cy="347.33" r="13.65"/><circle class="cls-6" cx="424.76" cy="347.33" r="13.65"/><circle class="cls-6" cx="473.75" cy="347.33" r="13.65"/><circle class="cls-6" cx="522.75" cy="347.33" r="13.65"/><circle class="cls-6" cx="571.75" cy="347.33" r="13.65"/><circle class="cls-6" cx="620.75" cy="347.33" r="13.65"/><circle class="cls-6" cx="669.75" cy="347.33" r="13.65"/><circle class="cls-6" cx="718.75" cy="347.33" r="13.65"/><circle class="cls-6" cx="32.81" cy="295.24" r="11.72"/><circle class="cls-6" cx="81.89" cy="295.24" r="11.72"/><circle class="cls-6" cx="130.96" cy="295.24" r="11.72"/><circle class="cls-6" cx="180.03" cy="295.24" r="11.72"/><circle class="cls-6" cx="229.1" cy="295.24" r="11.72"/><circle class="cls-6" cx="278.17" cy="295.24" r="11.72"/><circle class="cls-6" cx="327.24" cy="295.24" r="11.72"/><circle class="cls-6" cx="376.31" cy="295.24" r="11.72"/><circle class="cls-6" cx="425.39" cy="295.24" r="11.72"/><circle class="cls-6" cx="474.46" cy="295.24" r="11.72"/><circle class="cls-6" cx="523.53" cy="295.24" r="11.72"/><circle class="cls-6" cx="572.6" cy="295.24" r="11.72"/><circle class="cls-6" cx="621.67" cy="295.24" r="11.72"/><circle class="cls-6" cx="670.74" cy="295.24" r="11.72"/><circle class="cls-6" cx="719.81" cy="295.24" r="11.72"/><circle class="cls-6" cx="32.13" cy="245.23" r="10.05"/><circle class="cls-6" cx="81.15" cy="245.23" r="10.05"/><circle class="cls-6" cx="130.16" cy="245.23" r="10.05"/><circle class="cls-6" cx="179.18" cy="245.23" r="10.05"/><circle class="cls-6" cx="228.2" cy="245.23" r="10.05"/><circle class="cls-6" cx="277.21" cy="245.23" r="10.05"/><circle class="cls-6" cx="326.23" cy="245.23" r="10.05"/><circle class="cls-6" cx="375.24" cy="245.23" r="10.05"/><circle class="cls-6" cx="424.26" cy="245.23" r="10.05"/><circle class="cls-6" cx="473.28" cy="245.23" r="10.05"/><circle class="cls-6" cx="522.29" cy="245.23" r="10.05"/><circle class="cls-6" cx="571.31" cy="245.23" r="10.05"/><circle class="cls-6" cx="620.33" cy="245.23" r="10.05"/><circle class="cls-6" cx="669.34" cy="245.23" r="10.05"/><circle class="cls-6" cx="718.36" cy="245.23" r="10.05"/><circle class="cls-6" cx="31.89" cy="196.87" r="8.73"/><circle class="cls-6" cx="80.94" cy="196.87" r="8.73"/><circle class="cls-6" cx="130" cy="196.87" r="8.73"/><circle class="cls-6" cx="179.05" cy="196.87" r="8.73"/><circle class="cls-6" cx="228.1" cy="196.87" r="8.73"/><circle class="cls-6" cx="277.16" cy="196.87" r="8.73"/><circle class="cls-6" cx="326.21" cy="196.87" r="8.73"/><circle class="cls-6" cx="375.26" cy="196.87" r="8.73"/><circle class="cls-6" cx="424.32" cy="196.87" r="8.73"/><circle class="cls-6" cx="473.37" cy="196.87" r="8.73"/><circle class="cls-6" cx="522.42" cy="196.87" r="8.73"/><circle class="cls-6" cx="571.48" cy="196.87" r="8.73"/><circle class="cls-6" cx="620.53" cy="196.87" r="8.73"/><circle class="cls-6" cx="669.58" cy="196.87" r="8.73"/><circle class="cls-6" cx="718.64" cy="196.87" r="8.73"/><circle class="cls-6" cx="32.08" cy="149.77" r="7.58"/><circle class="cls-6" cx="81.2" cy="149.77" r="7.58"/><circle class="cls-6" cx="130.32" cy="149.77" r="7.58"/><circle class="cls-6" cx="179.45" cy="149.77" r="7.58"/><circle class="cls-6" cx="228.57" cy="149.77" r="7.58"/><circle class="cls-6" cx="277.69" cy="149.77" r="7.58"/><circle class="cls-6" cx="326.81" cy="149.77" r="7.58"/><circle class="cls-6" cx="375.93" cy="149.77" r="7.58"/><circle class="cls-6" cx="425.06" cy="149.77" r="7.58"/><circle class="cls-6" cx="474.18" cy="149.77" r="7.58"/><circle class="cls-6" cx="523.3" cy="149.77" r="7.58"/><circle class="cls-6" cx="572.42" cy="149.77" r="7.58"/><circle class="cls-6" cx="621.54" cy="149.77" r="7.58"/><circle class="cls-6" cx="670.67" cy="149.77" r="7.58"/><circle class="cls-6" cx="719.79" cy="149.77" r="7.58"/><circle class="cls-6" cx="32.32" cy="103.95" r="6.58"/><circle class="cls-6" cx="81.4" cy="103.95" r="6.58"/><circle class="cls-6" cx="130.49" cy="103.95" r="6.58"/><circle class="cls-6" cx="179.57" cy="103.95" r="6.58"/><circle class="cls-6" cx="228.66" cy="103.95" r="6.58"/><circle class="cls-6" cx="277.74" cy="103.95" r="6.58"/><circle class="cls-6" cx="326.83" cy="103.95" r="6.58"/><circle class="cls-6" cx="375.92" cy="103.95" r="6.58"/><circle class="cls-6" cx="425" cy="103.95" r="6.58"/><circle class="cls-6" cx="474.09" cy="103.95" r="6.58"/><circle class="cls-6" cx="523.17" cy="103.95" r="6.58"/><circle class="cls-6" cx="572.26" cy="103.95" r="6.58"/><circle class="cls-6" cx="621.34" cy="103.95" r="6.58"/><circle class="cls-6" cx="670.43" cy="103.95" r="6.58"/><circle class="cls-6" cx="719.52" cy="103.95" r="6.58"/><circle class="cls-6" cx="32.75" cy="65.77" r="5.71"/><circle class="cls-6" cx="81.87" cy="65.77" r="5.71"/><circle class="cls-6" cx="130.98" cy="65.77" r="5.71"/><circle class="cls-6" cx="180.1" cy="65.77" r="5.71"/><circle class="cls-6" cx="229.22" cy="65.77" r="5.71"/><circle class="cls-6" cx="278.33" cy="65.77" r="5.71"/><circle class="cls-6" cx="327.45" cy="65.77" r="5.71"/><circle class="cls-6" cx="376.57" cy="65.77" r="5.71"/><circle class="cls-6" cx="425.68" cy="65.77" r="5.71"/><circle class="cls-6" cx="474.8" cy="65.77" r="5.71"/><circle class="cls-6" cx="523.92" cy="65.77" r="5.71"/><circle class="cls-6" cx="573.04" cy="65.77" r="5.71"/><circle class="cls-6" cx="622.15" cy="65.77" r="5.71"/><circle class="cls-6" cx="671.27" cy="65.77" r="5.71"/><circle class="cls-6" cx="720.39" cy="65.77" r="5.71"/><circle class="cls-6" cx="376.53" cy="28.86" r="4.95"/><circle class="cls-6" cx="425.58" cy="28.86" r="4.95"/><circle class="cls-6" cx="474.63" cy="28.86" r="4.95"/><circle class="cls-6" cx="523.68" cy="28.86" r="4.95"/><circle class="cls-6" cx="572.73" cy="28.86" r="4.95"/><circle class="cls-6" cx="621.78" cy="28.86" r="4.95"/><circle class="cls-6" cx="670.82" cy="28.86" r="4.95"/><circle class="cls-6" cx="719.87" cy="28.86" r="4.95"/><circle class="cls-6" cx="34.37" cy="28.86" r="4.95"/><circle class="cls-6" cx="83.42" cy="28.86" r="4.95"/><circle class="cls-6" cx="132.47" cy="28.86" r="4.95"/><circle class="cls-6" cx="181.52" cy="28.86" r="4.95"/><circle class="cls-6" cx="230.56" cy="28.86" r="4.95"/><circle class="cls-6" cx="279.61" cy="28.86" r="4.95"/><circle class="cls-6" cx="328.66" cy="28.86" r="4.95"/></g><polygon class="cls-7" points="443.1 8.83 365.48 103.25 270.29 44.66 250.1 112.03 137.6 117.89 163.56 173.55 13.57 196.98 131.83 237.99 33.76 290.72 146.26 314.15 65.65 388.77 195.29 358.09 148.31 469.11 298.51 424.87 307.83 580.89 414.94 419.05 488.3 488.91 539.53 407.4 671.09 428.36 616.43 340.52 731.64 315.42 616.43 232.13 702.53 154.75 584.7 138.4 587.58 62.24 483.74 117.89 443.1 8.83"/><line class="cls-8" x1="492.16" y1="44.27" x2="484.07" y2="75.09"/><line class="cls-8" x1="548.3" y1="44.78" x2="507.84" y2="71.49"/><text class="cls-9" transform="matrix(0.94, -0.29, 0.28, 0.96, 260.64, 143.76)">资本化</text><text class="cls-10" transform="matrix(0.94, -0.29, 0.28, 0.96, 284.63, 203.28)">品牌提升</text><text class="cls-11" transform="matrix(0.98, -0.03, 0.03, 1, 112.36, 215.55)">招商加盟</text><text class="cls-12" transform="matrix(0.97, -0.15, 0.15, 0.99, 393.1, 102.29)">O2O</text><text class="cls-13" transform="matrix(0.97, 0.17, -0.16, 0.99, 364.49, 137.65)">做APP</text><text class="cls-14" transform="matrix(0.88, -0.45, 0.44, 0.9, 200.79, 425.54)">招聘技术工程师</text><text class="cls-15" transform="matrix(0.93, 0.35, -0.34, 0.94, 179.31, 150.01)">传统转型</text><text class="cls-16" transform="matrix(0.98, 0.03, -0.03, 1, 85.79, 289.99)">外包</text><text class="cls-16" transform="matrix(0.98, 0.03, -0.03, 1, 491.73, 169.74)">线上推广</text><text class="cls-17" transform="matrix(0.9, -0.4, 0.4, 0.92, 559.8, 220.38)">网站宕机</text><text class="cls-16" transform="matrix(0.98, 0.03, -0.03, 1, 372.53, 209.31)">融资</text><text class="cls-16" transform="matrix(0.98, 0.03, -0.03, 1, 503.51, 363.06)">人工智能</text><text class="cls-18" transform="matrix(0.97, -0.14, 0.14, 0.99, 147.78, 351.88)">战略优化</text><text class="cls-19" transform="matrix(0.9, 0.4, -0.41, 0.91, 609.85, 281.87)">合伙人</text><text class="cls-20" transform="matrix(0.98, 0.12, -0.12, 0.99, 316.8, 451.93)">自媒体</text><text class="cls-21" transform="matrix(0.86, 0.49, -0.49, 0.87, 440.84, 181.76)">大数据</text><text class="cls-22" transform="matrix(0.96, -0.24, 0.24, 0.97, 448.42, 426.71)">社群营销</text><text class="cls-23" transform="matrix(0.73, 0.68, -0.67, 0.74, 418.68, 337.35)">财税法律</text><text class="cls-24" transform="matrix(0.99, -0.09, 0.11, 0.99, 336.62, 404.72)">线上营销</text><text class="cls-25" transform="translate(152.93 265.53)">企业短板<tspan class="cls-26" x="180.52" y="0">，</tspan><tspan x="201.75" y="0">需牛人助力！</tspan></text><text class="cls-27" transform="translate(169.75 310.76)">猎头引荐<tspan class="cls-28" x="128.79" y="0">，</tspan><tspan x="145.49" y="0">包年服务仅1%费用</tspan></text></svg>